<?xml version="1.0" encoding="UTF-8"?><svg id="uuid-c0376972-871b-4091-94fd-5fd91a349dc9" xmlns="http://www.w3.org/2000/svg" viewBox="0 0 51.94851 50.29978"><g id="uuid-3b188db2-f0b9-42a3-b715-6defb1c9b808"><path d="m20.84484,15.02482c.40322.84895.78764,1.71794,1.06214,2.61429.41343,1.35007,2.26263,2.38359,4.24025,2.27205,2.15048-.12128,3.46067-1.00717,3.85567-2.44977.23519-.85895.61553-1.6893,1.01799-2.48853.51267-1.0181,1.18142-1.96031,1.65978-2.99229.6296-1.35827.80037-2.74808.0431-4.17586-.24815-.46789-.28961-1.10077-.2622-1.65006.13032-2.6127-1.07376-4.58394-3.50456-5.57665-.54342-.22193-1.11383-.37777-1.67299-.56117-.0339-.01112-.06925-.01685-.10491-.01685h-2.39768c-.0435,0-.08674.00774-.12708.02398-.11969.04819-.23794.10188-.36182.1338-3.45004.88887-4.82872,2.67441-4.82641,6.20266.00032.4846-.0294,1.02278-.23417,1.44437-.75207,1.54845-.58151,3.02849.17219,4.49589.46933.91377,1.00041,1.79714,1.44071,2.72412Z" style="fill:#fff;"/><path d="m10.32675,33.15699c-.78782-.44295-1.42705-.81373-2.09492-1.12255-.65575-.3032-.87335-.72758-.82696-1.43214.04675-.70988.02999-1.42394.02002-2.25694-.00351-.29359-.35114-.44753-.57118-.25312-.56611.50014-1.06506.92511-1.48339,1.41844-.6024.71042-1.19983.75969-1.99844.40041-.62157-.27963-1.27491-.48861-2.0072-.73779-.28416-.0967-.56901.2013-.42523.46479.00869.01594.01845.03066.02957.04428,1.94011,2.37543.92854,4.26623-.96901,6.01793v.22885c1.0186-.13012,2.04026-.24046,3.05472-.39727.68506-.10589,1.14652.09554,1.51388.70967.37125.62064.79788,1.20816,1.29863,1.91548.17189.2428.55071.16644.61574-.12385.18565-.82865.35544-1.50574.40048-2.19101.05966-.90717.53269-1.24188,1.31373-1.4384.65059-.1637,1.28971-.37302,2.06574-.61967.28613-.09094.32555-.47997.06383-.62711Z" style="fill:#fff;"/><path d="m50.09662,33.38205c-.43282-.50137-.4954-.94553-.16492-1.54063.36739-.66156.67741-1.35496,1.0677-2.19913.12674-.27415-.1368-.5672-.42266-.46974-.77963.26582-1.40549.47017-2.00565.73321-.80984.35496-1.41298.25322-2.01006-.43771-.42895-.49637-.92912-.93119-1.42276-1.37166-.20452-.18249-.5339-.06545-.56902.20639-.09705.75137-.09418,1.41443-.04181,2.06393.06009.74535-.35084,1.44297-1.0222,1.77225-.59701.29281-1.18519.63252-1.8741,1.02139-.26501.14959-.21855.54586.07396.62979.90589.25995,1.65443.45964,2.35754.76422.39618.17162.79715.64183.92523,1.05951.22076.72.3375,1.47191.49506,2.38211.05213.30117.4431.38923.61939.13954.49351-.69905.91179-1.27843,1.27734-1.88937.36625-.61208.82404-.81946,1.51198-.71224,1.01484.15816,2.03754.26597,3.05688.39523v-.22885c-.6146-.77507-1.20606-1.57012-1.85189-2.31825Z" style="fill:#fff;"/><path d="m33.07667,34.53513c3.22568-1.51658,5.74872-3.86382,7.52792-6.94231,1.14526-1.98158.63732-3.61881-1.2971-4.73117-.45985-.26444-.95692-.46704-1.44553-.67807-1.74551-.7539-3.51548-1.45553-5.2316-2.2708-.6221-.29554-.95042-.1407-1.36736.28272-.45475.46182-.85167.9523-1.2025,1.46772-.0074.00705-.01426.01292-.02171.02009-1.34411,1.29421-2.79586,1.5791-3.60194,1.62732-.22696.00362-.44926-.00018-.66512-.01078-.09851-.00281-.19232-.01076-.287-.01777-.08692-.00661-.17259-.01415-.25702-.02254-2.32382-.26993-3.41142-1.75442-3.41142-1.75442,0,0-.00113.00089-.00126.00101-.37188-.50217-.79725-.97315-1.26989-1.412-.22828-.21196-.76366-.32074-1.04916-.20683-1.85468.73998-3.68248,1.54714-5.51986,2.3308-2.70693,1.15455-3.59898,4.11762-1.93859,6.54735,4.6235,6.76581,13.58912,9.27237,21.03913,5.76968Z" style="fill:#fff;"/><path d="m18.65979,39.52277c-.89345-.00925-1.61124-.02615-2.32523.01817-.70723.0439-1.12963-.19662-1.4308-.84357-.3027-.65028-.65913-1.27555-1.08861-2.04836-.14925-.26856-.55015-.22073-.63185.07545-.25033.90763-.43883,1.64521-.73293,2.33795-.16961.39951-.63576.80706-1.05352.93984-.72132.22925-1.47652.35199-2.39769.51988-.29785.05428-.38483.44052-.13905.61728.68762.49454,1.24133.90166,1.82359,1.26274.61268.37994.92273.77559.74774,1.56697-.1583.71592-.20749,1.45599-.28898,2.36057-.0265.29409.30602.48382.54417.30925.5692-.41722,1.01336-.72794,1.38928-1.10644.82138-.82705,1.6122-.94749,2.60678-.28898.468.30986.99794.52615,1.64269.8052.27276.11804.55599-.14416.46108-.42581-.24344-.72233-.4336-1.3144-.66929-1.87119-.32513-.76809-.13369-1.6614.46915-2.23781.43609-.41697.84323-.88127,1.32557-1.41752.19757-.21967.04336-.57057-.25209-.57363Z" style="fill:#fff;"/><path d="m42.96091,40.52157c-.83466-.15546-1.53028-.27289-2.18705-.46448-.53768-.15686-1.1496-.71793-1.35201-1.24016-.24456-.63104-.41991-1.30466-.63587-2.08391-.07999-.28869-.46538-.34435-.62331-.0898-.3002.48382-.5542.88274-.70849,1.31708-.47432,1.33519-1.35049,1.78557-2.71521,1.57365-.4479-.06955-.90951-.05079-1.45921-.03284-.29881.00976-.44288.37143-.23316.58451.62471.63472,1.15782,1.15338,1.58617,1.74755.2743.38047.39861,1.02239.30119,1.48508-.1505.71487-.42402,1.40386-.74429,2.2663-.10565.28454.18338.55657.46109.43408.75022-.33092,1.36476-.58709,1.9243-.93239.7907-.48796,1.37161-.36667,2.02562.23343.48078.44114,1.01825.8205,1.66006,1.28951.23913.17474.57273-.01522.5448-.31007-.08734-.92136-.14694-1.69143-.29285-2.44479-.13388-.69136.11722-1.05782.659-1.39947.60913-.38414,1.19631-.80309,1.92403-1.31377.24891-.17467.16414-.56382-.1348-.6195Z" style="fill:#fff;"/><path d="m29.41344,44.76788c-.6546-.5028-.88948-1.03709-.60257-1.86818.21563-.62462.33221-1.28344.49514-2.09563.05781-.28818-.24899-.5116-.50519-.36755-.64683.36372-1.16966.64433-1.6376.99766-.8079.61001-1.50346.68552-2.33501.02232-.46553-.37129-1.00234-.65322-1.53277-.94316-.23256-.12712-.5196.04681-.50756.31158.03602.79287.17576,1.47501.38008,2.13724.22006.71331.09973,1.2262-.50422,1.69514-.56994.44253-1.10503.92995-1.7492,1.50478-.22631.20195-.09861.57757.20392.59926.89895.06445,1.65722.10653,2.39511.25196.4268.08411.93843.42505,1.14582.79745.37899.6805.66079,1.41515,1.00622,2.27379.11396.28327.51393.28807.63464.00761.35998-.83635.66871-1.53465.9246-2.25182.22681-.63565.58396-.87159,1.2627-.87903.7454-.00816,1.4899-.0981,2.38103-.19202.29729-.03133.41561-.40171.19144-.59948-.62148-.54828-1.11802-.99594-1.64659-1.40193Z" style="fill:#fff;"/></g></svg>