<?xml version="1.0" encoding="UTF-8"?><svg id="uuid-3f464980-17c1-4575-8532-c9cc1293be29" xmlns="http://www.w3.org/2000/svg" viewBox="0 0 367.94035 312.08581"><g id="uuid-8b168d84-b2f5-412e-a2ed-00d45525e4a9"><path d="m112.63,150.71551c-35.56-.02997-71.12-.06-106.67999.09003-1.98999.01001-3.97003,1.60999-5.95001,2.46002v8.63c.22998.52997.60004,1.02997.67999,1.57996,4.73999,31.27002,32.16003,52.88,63.84003,50.28003,29.45996-2.41003,53.08997-27.34003,53.95001-56.91998.13995-4.59003-1.20001-6.11005-5.84003-6.12006Zm-37.96997,42.90002c-.56,5.60999-5.14001,10.40997-11.23004,11.51001-.47998.08997-.58997.27002-.57996.71002.01996,1.60999-.01001,3.21997.01996,4.82996.01001.64001-.14996,1.14001-.70996,1.47003h-5.12006c-.64996-.29999-.82996-.84003-.81995-1.52002.02997-1.60999,0-3.21997.01996-4.83002,0-.39996-.08997-.57001-.51996-.63995-4.14001-.68005-7.82001-2.39001-10.99005-5.16003-.21997-.19-.42999-.39001-.62-.60999-.45996-.52002-.48999-.97003-.07996-1.52002,1.07996-1.44,2.16998-2.87,3.27997-4.29999.48999-.63,1.07001-.69,1.70001-.15997,1.84998,1.59998,3.88,2.89996,6.21002,3.65997,2.10999.69,4.25995,1.07001,6.45996.51001,1.54999-.39001,3-1.04999,3.88-2.45001,1.51001-2.41998.97003-5.06-1.83002-6.59998-2.28998-1.26001-4.75-2.23004-7.15997-3.27002-2.53003-1.09003-5.03998-2.17999-7.28998-3.82001-6.08002-4.42999-6.16003-12.77002-1.37-17.54999,2.25995-2.26001,4.96997-3.59003,8.04999-4.25.07001-.01001.14001-.03003.26996-.06v-3.90002c0-.56.02002-1.12-.00995-1.67999-.03003-.66998.19995-1.16998.81995-1.46997h5.12006c.54999.34998.71997.83997.70996,1.46997-.02997,1.65002,0,3.29999-.01996,4.95001,0,.37.06995.52997.48999.58997,3.45996.49005,6.63,1.68005,9.35999,3.91003.21002.16998.41998.33997.60999.53998.37.39001.46002.82001.17999,1.32001-.89996,1.59003-1.76001,3.19-2.65997,4.77002-.41998.73999-1.04004.77002-1.83002.23999-1.07001-.71997-2.14001-1.47998-3.28998-2.06-2.52002-1.26001-5.20001-1.77002-8-1.15997-1.57001.33997-2.98004,1.01996-3.96002,2.34998-1.29999,1.75-1.01001,4.14001.60999,5.62,1,.91998,2.11005,1.63,3.36005,2.15002,1.79999.75,3.62,1.47998,5.41998,2.21997,2.5,1.01001,4.96997,2.06,7.14996,3.69,3.55005,2.64001,4.80005,6.20001,4.37006,10.5Z" style="fill:#0099ce;"/><path d="m225.62909,286.151c-6.69434-.25177-13.39722-.28497-20.09644-.39697-2.09521-.03503-4.19141-.00543-6.22607-.00543V62.53991h102.19775c-1.05151,1.72766-1.82642,3.04053-2.63867,4.32965-13.0127,20.64764-26.03516,41.28906-39.03418,61.94513-.82349,1.30847-1.65356,2.66162-2.16919,4.10516-1.23096,3.44659.23828,7.16907,3.35034,8.96356,3.12524,1.802,6.94604,1.11029,9.38428-1.77972.7666-.90863,1.38208-1.95068,2.02002-2.96112,11.36963-18.00677,22.73071-36.01892,34.09985-54.026.67261-1.06543,1.39819-2.09741,2.2627-3.38922.92773,1.37488,1.68628,2.43622,2.38086,3.53796,11.22949,17.81189,22.44336,35.63373,33.68823,53.43579.88892,1.40704,1.84595,2.81976,3.00903,3.99438,2.25439,2.27655,5.06641,2.67822,7.94946,1.46722,2.90015-1.21802,4.72681-3.56854,4.36182-6.73578-.2478-2.15002-1.14062-4.39105-2.29883-6.24548-13.1814-21.10675-26.47119-42.14587-39.7251-63.20758-.67261-1.06885-1.28027-2.17859-2.09717-3.57501,6.20947-.72614,10.33667-3.64331,11.55786-9.49091,1.57837-7.55719-3.89331-13.89819-11.91895-13.91486-27.19043-.0564-54.3811.0105-81.57104-.10889-1.65649-.00732-3.8645-.75635-4.86548-1.95435-4.48438-5.36688-9.86133-9.29791-16.29761-11.9903-1.26929-.53094-2.66064-2.11096-2.94971-3.43542C207.2121,8.71734,196.86298.03765,184.04169.00012c-12.77173-.03729-23.36066,8.77521-26.03949,21.4118-.28259,1.33337-1.62708,2.9552-2.88245,3.48254-6.42798,2.70026-11.84839,6.58264-16.31079,11.9715-.9519,1.14941-2.94653,1.97235-4.48364,2.01007-8.02051.19696-16.04846.09003-24.07385.09235-19.52429.00574-39.04895-.03357-58.57288.04785-6.11536.02551-10.93774,4.50299-11.42358,10.22266-.54956,6.46838,3.22095,11.53601,9.47949,12.76001.64355.12585,1.27148.33057,2.16016.56573-.78638,1.31757-1.36768,2.33972-1.9939,3.33362-13.01074,20.64923-26.02893,41.2937-39.03522,61.94574-.82684,1.31287-1.67975,2.62805-2.32825,4.03101-1.81653,3.92999-.62726,7.91992,2.8736,9.99188,3.29309,1.94897,7.28918,1.04388,9.85449-2.28784.7276-.94495,1.33002-1.9881,1.96783-3.00006,11.22711-17.81335,22.44879-35.63013,33.67999-53.44092.69141-1.09637,1.45239-2.14893,2.32666-3.43646.88867,1.35358,1.62305,2.43506,2.32031,3.5401,11.3009,17.90857,22.5907,35.82416,33.90747,53.72272.82642,1.30707,1.7146,2.61914,2.79236,3.71411,2.25549,2.29163,5.06628,2.6889,7.94836,1.49738,2.89087-1.19519,4.79736-3.49829,4.38074-6.68811-.29553-2.26355-1.1991-4.61694-2.41602-6.56488-13.0575-20.90076-26.23328-41.7276-39.36877-62.57965-.72302-1.14783-1.37646-2.33936-2.26196-3.8512h102.20416v223.25647c-1.58618,0-2.98877-.02429-4.3902.00409-7.77539.15723-15.57104.0285-23.32104.56091-12.57629.86401-22.96973,12.89966-22.57239,25.77228h131.27289c-.01831-14.28674-11.6543-25.46655-24.10669-25.93481Z" style="fill:#0099ce;"/><path d="m361.1601,150.70556c-17.37012-.02002-34.7301-.01001-52.09009-.01001h-30.17993c-7.90015,0-15.80005-.04999-23.70007.01996-4.27002.04004-5.83997,1.58002-5.65002,5.57001.14001,3.10004.44995,6.22003,1.01001,9.27002,5.53003,30.25,33.71997,51.26001,64.56006,48.21002,28.10999-2.77002,52.21997-27.95001,52.81995-56.16003.13-5.82001-.90002-6.89996-6.7699-6.89996Zm-37.01001,42.90997c-.55005,5.60999-5.14014,10.40997-11.2301,11.51001-.47998.08997-.58997.27002-.57996.71002.02002,1.60999-.01001,3.21997.02002,4.82996.01001.64001-.15002,1.14001-.70996,1.47003h-5.12012c-.6499-.29999-.82996-.84003-.81995-1.52002.02991-1.60999,0-3.21997.0199-4.83002.01001-.39996-.08984-.57001-.5199-.63995-4.14001-.68005-7.81995-2.39001-10.98999-5.16003-.22009-.19-.43005-.39001-.62-.60999-.45996-.52002-.48999-.97003-.08008-1.52002,1.08008-1.44,2.18005-2.87,3.28003-4.29999.48999-.63,1.07007-.69,1.69995-.15997,1.8501,1.59998,3.88013,2.89996,6.22009,3.65997,2.09998.69,4.25,1.07001,6.44995.51001,1.55005-.39001,3-1.04999,3.88-2.45001,1.51001-2.41998.96997-5.06-1.82996-6.59998-2.29004-1.26001-4.75-2.23004-7.16003-3.27002-2.53003-1.09003-5.04004-2.17999-7.29004-3.82001-6.07996-4.42999-6.15991-12.77002-1.36987-17.54999,2.26001-2.26001,4.96997-3.59003,8.04993-4.25.06995-.01001.14001-.03003.27002-.06v-3.90002c0-.56.0199-1.12-.01001-1.67999-.03003-.66998.20996-1.16998.81995-1.46997h5.12012c.54993.34998.71997.83997.70996,1.46997-.03003,1.65002,0,3.29999-.02002,4.95001,0,.37.07007.52997.48999.58997,3.45996.49005,6.63,1.68005,9.35999,3.91003.21008.16998.42004.33997.60999.53998.37.39001.45996.82001.17993,1.32001-.8999,1.59003-1.75989,3.19-2.65991,4.77002-.40991.73999-1.04004.77002-1.83008.23999-1.06995-.71997-2.13989-1.47998-3.28992-2.06-2.52002-1.26001-5.19006-1.77002-8-1.15997-1.56995.33997-2.97998,1.01996-3.96008,2.34998-1.29993,1.75-1.01001,4.14001.61011,5.62,1,.91998,2.12,1.63,3.35999,2.15002,1.80994.75,3.62,1.47998,5.42004,2.21997,2.5,1.01001,4.96997,2.06,7.1499,3.69,3.55005,2.64001,4.80005,6.20001,4.37012,10.5Z" style="fill:#0099ce;"/></g></svg>