<?xml version="1.0" encoding="UTF-8"?><svg id="uuid-37e0502a-252e-4840-aec2-6caef2576b8e" xmlns="http://www.w3.org/2000/svg" viewBox="0 0 218.02716 223.95627"><g id="uuid-1c1acc2d-686e-4abd-b990-7bb5a5487aa6"><path d="m63.46123,0c-.87679.14967-1.75357.29934-2.63036.449-.00823.04438-.01646.08875-.02469.13313.95185.09998,1.91112.15426,2.85437.30723,7.17709,1.16392,13.83822,3.7046,19.95238,7.63328,7.56549,4.86124,13.65406,11.16284,18.11071,18.98419,2.55595,4.48565,4.55574,9.20981,5.71095,14.27226.20339.8913-.10232,1.52754-.51672,2.20331-1.06173,1.73135-2.16866,3.43666-3.17993,5.19696-3.12392,5.43774-5.22315,11.27893-6.59303,17.3776-.55249,2.45963-.903,4.96755-1.27183,7.46438-.21543,1.4584-.20073,1.51603-1.67529,1.76298-6.08209,1.01858-11.92029,2.84358-17.57468,5.28918-7.63289,3.30134-14.57628,7.67532-20.86786,13.12441-4.06028,3.51657-7.71308,7.39969-11.04853,11.59238-1.52093,1.91182-1.48294,1.9026-3.88286,1.28789-7.13269-1.82696-13.6108-5.02044-19.42001-9.50416-5.90777-4.55978-10.71427-10.10535-14.3633-16.6489-3.12412-5.60225-5.18218-11.56676-6.22314-17.87585C.40692,60.56117.05863,58.03728.00602,55.5229c-.05172-2.47167.23923-4.95916.50038-7.42694.54926-5.19018,1.94928-10.16857,4.0178-14.95198,3.90382-9.02752,9.77154-16.5112,17.69436-22.36688,6.64333-4.91002,14.01959-8.15582,22.11758-9.76479.72987-.14502,1.47213-.25161,2.21379-.30653.69656-.05159,1.39994-.01105,2.13113-.23102-.71487-.15826-1.42975-.31651-2.14462-.47477,5.64159,0,11.28318,0,16.92478,0Zm-21.91778,51.49715c-.05568.1013-.11137.2026-.16705.30391-.44486,0-.88973-.00096-1.33459.00018-1.40966.00361-2.82331-.05727-4.22792.029-1.66605.10231-2.85158,1.32888-2.89717,2.83694-.06391,2.11385.86735,3.47227,2.64854,3.7614.8551.13881,1.72828.21319,2.59465.22631,2.11477.03204,4.23096.04208,6.34531-.00115,1.04819-.02143,1.80789.38862,2.16974,1.32588.33722.87346.57144,1.8006.73158,2.72479.17824,1.02867-.05083,1.23596-1.10259,1.27512-.2484.00925-.49762-.00636-.74644-.00527-3.15198.01369-6.30508-.01755-9.45553.0596-1.9603.048-3.13401,1.27259-3.18686,3.10261-.06356,2.20098.91658,3.43913,2.96773,3.704.49074.06337.99356.04391,1.49083.04412,2.57146.00109,5.14292-.00795,7.71438-.00543,2.47052.00242,2.46306.00672,2.4642,2.54674.00115,2.56306-.07323,5.13088.05885,7.68766.10715,2.07422.91677,3.91476,2.88391,4.91698,2.27314,1.15812,4.679,1.47375,7.09121.46234,2.07641-.87061,3.49806-2.40082,3.80188-4.70055.19465-1.47332.21394-2.97365.24793-4.46333.03972-1.74106-.00118-3.48382.01423-5.22565.00995-1.12459.08625-1.2074,1.20492-1.21323,2.57139-.01338,5.1429,0,7.71436-.00138.82939-.00044,1.66147.02674,2.48759-.02892,1.45373-.09795,2.48773-.84091,3.06791-2.18192.54228-1.25342.13857-2.34654-.61742-3.36595-.63951-.86236-1.52867-1.26204-2.57541-1.28865-1.36788-.03479-2.7374-.00384-4.10535-.03681-2.07018-.0499-4.14051-.11294-6.20842-.21703-.31138-.01567-.82203-.22724-.88027-.44468-.38594-1.44081.27261-2.65297.96423-3.85889.52245-.91096,1.36064-.8004,2.18562-.80035,2.65441.00015,5.30929.03078,7.96306-.01045,1.73736-.02698,3.34652-1.5268,3.48976-3.13913.15433-1.73724-1.01307-3.3541-2.81578-3.65775-1.1291-.19018-2.30076-.15606-3.4538-.16599-.79797-.00687-1.59679.08282-2.60244.14145.22083-.55982.29698-.87947.45964-1.14642,2.91193-4.77905,5.84848-9.54316,8.74735-14.33009,1.11546-1.84196,2.28461-3.67017,3.19106-5.61565,1.43399-3.07767.15286-6.35858-2.86673-7.89199-1.37148-.69646-2.84209-.8533-4.34291-.88736-2.0159-.04576-3.63048.7923-4.84875,2.34489-.66145.84298-1.25039,1.76164-1.74853,2.71097-3.71764,7.08488-7.40477,14.18575-11.09842,21.2832-.09522.18296-.15572.38397-.29013.72152-.39532-.56077-.58391-.77266-.71094-1.0166-3.46542-6.65512-6.9205-13.31562-10.38913-19.96907-.51707-.99182-1.03155-1.99426-1.65406-2.91995-1.40404-2.08783-3.2547-3.41374-5.92745-3.14143-.78193.07966-1.58071.09781-2.34006.27785-3.92853.93149-5.73431,4.53117-4.71148,7.46925.47332,1.35962,1.06114,2.70907,1.80004,3.94142,3.17659,5.29794,6.43056,10.54946,9.65048,15.82148.40282.65954.77064,1.34045,1.15468,2.01146Z" style="fill:#0099ce;"/><path d="m109.22646,87.95034c19.60561.29649,36.246,7.52223,49.64693,21.81382,12.16541,12.97395,18.2631,28.66036,18.17759,46.32547-.09473,19.57447-7.49243,36.37664-21.92783,49.7458-13.20115,12.22606-29.03743,18.36877-46.97501,18.11318-19.27539-.27467-35.77585-7.65165-48.92378-21.80227-12.78806-13.76328-18.95771-30.27165-18.1458-49.04305,1.65652-38.29895,33.71829-65.60806,68.14791-65.15295Zm-3.50305,96.65093c-.87402-.0506-1.53723-.04664-2.18823-.13384-3.23861-.43379-6.29348-1.35383-8.39161-4.05261-.87489-1.12535-1.47067-2.48835-2.07479-3.79799-.65835-1.42722-1.10112-2.95522-1.77903-4.37173-.92433-1.93142-2.41285-3.31706-4.60626-3.59202-1.38745-.17394-2.83658-.23229-4.21287-.03204-2.15105.31296-3.68709,1.58943-4.51365,3.64955-.87948,2.19202-.61171,4.41905-.07607,6.60223,1.06967,4.35982,3.61646,7.80655,7.08317,10.53983,5.64318,4.44925,12.22725,6.30382,19.30508,6.63377,1.51891.07079,1.54547.04345,1.54521,1.52852-.00033,1.86605-.03072,3.73271.00668,5.59798.03199,1.59577.87108,2.76147,2.23696,3.48178.45627.24063,1.133.28953,1.64237.16139,1.63517-.41133,2.68655-1.84711,2.71132-3.59258.02883-2.03164.02188-4.06403.00539-6.09591-.00573-.7075.2312-1.07665.9999-1.08232.65895-.00486,1.31619-.13347,1.97567-.19024,5.22719-.45003,10.20462-1.78174,14.78014-4.384,4.41876-2.51311,7.57001-6.15587,9.20185-11.00523,1.53028-4.54748,1.5887-9.20661.6806-13.87004-.72988-3.7482-2.44305-7.01936-5.20009-9.71392-2.94182-2.87515-6.51046-4.74534-10.3234-6.05924-3.5554-1.22513-7.23982-2.07719-10.87144-3.07897-1.2195-.3364-1.23722-.31602-1.23813-1.56847-.00449-6.17902-.00206-12.35802-.00197-18.53704,0-.1244-.00328-.24903.00259-.37319.0444-.93812.22203-1.17347,1.09877-1.05929,1.14347.14892,2.30407.31939,3.39756.66798,2.4639.78542,4.50924,2.2451,6.19654,4.20461,1.35213,1.57025,2.70921,3.13624,4.0566,4.71052,1.48536,1.73548,3.28235,2.65741,5.64869,2.56801,3.66561-.13848,6.3829-2.82046,6.49719-6.48854.09765-3.1342-1.0381-5.72384-3.1533-7.97386-3.38174-3.59727-7.75168-5.49534-12.27779-7.04534-3.29247-1.12753-6.70751-1.8394-10.20057-2.09627-1.11908-.0823-1.25042-.25843-1.26237-1.39154-.01443-1.36835.01846-2.73751-.01426-4.10524-.01575-.65859-.07359-1.3286-.21857-1.96942-.50146-2.21649-3.16256-3.10024-4.88531-1.64455-.93644.79127-1.46908,1.7947-1.48301,3.02833-.0178,1.57537.01392,3.15126.00363,4.72679-.00726,1.11178-.17528,1.28731-1.28015,1.38406-4.19537.36742-8.25573,1.23405-12.12529,2.97563-5.03538,2.26629-8.88169,5.75434-11.27249,10.74767-1.91611,4.00188-2.37603,8.28154-1.87409,12.62993.33488,2.90106,1.28682,5.64303,3.07241,8.04191,2.99083,4.01806,7.004,6.64627,11.54197,8.56046,3.40976,1.43829,6.95452,2.4372,10.5839,3.15426,1.30096.25704,1.34597.35795,1.34667,1.63528.00382,6.92543.00674,13.85086.00327,20.77628-.0002.39948-.05958.79895-.0994,1.29866Z" style="fill:#0099ce;"/><path d="m161.46806,86.44976c.59641-.0501,1.03313-.1163,1.47018-.11848,2.07384-.01034,4.14786.00719,6.2216-.00991.49264-.00406,1.00212-.03917,1.47387-.169,3.18034-.87524,3.72344-2.15579,3.17865-5.64451-.22716-1.45461-1.86368-2.48792-3.73956-2.5511-3.27149-.11018-6.54537-.21121-9.81779-.1984-1.16587.00456-1.78107-.33191-2.24071-1.44069-.82382-1.98724-1.82239-3.87592-2.12588-6.06918-.54581-3.94408,1.35222-7.57226,5.03639-9.20676,3.04962-1.35299,6.21855-1.45405,9.35571-.47309,2.39642.74934,3.85517,2.63327,4.90063,4.84514.33655.71201.64689,1.43765,1.01142,2.13499,1.96195,3.75324,5.46436,4.06618,8.5827,2.562,2.42811-1.17125,3.47449-3.47156,3.20229-6.16951-.43192-4.28087-2.71896-7.37449-6.01021-9.88476-3.17905-2.42468-6.84759-3.6966-10.7242-4.36457-5.98744-1.03169-11.91231-.86367-17.56082,1.63973-6.04945,2.6811-10.28078,7.02616-11.342,13.76074-.64625,4.10129-.42391,8.20315,1.94328,11.88383.12361.19219.1551.44363.29813.87408-.53276,0-.92241.02321-1.3085-.00409-1.52551-.10788-2.89751.18716-3.86888,1.48817-.42115.56405-.87461.62378-1.50922.35146-4.94439-2.12162-10.1454-3.30923-15.4224-4.23693-3.96586-.6972-7.9618-1.0234-11.97909-1.137-.67272-.01902-.89711-.28378-.78016-.92307,1.36364-7.45474,3.82331-14.48005,7.95828-20.89034,5.21697-8.08767,12.04704-14.41601,20.53012-18.92303,5.49286-2.91834,11.32301-4.89183,17.50913-5.76697,9.26443-1.31062,18.25406-.29822,27.00145,3.02153,6.47763,2.45834,12.22823,6.04878,17.35168,10.71327,6.05106,5.509,10.70002,12.00714,13.77028,19.56533,1.98362,4.88315,3.40532,9.9566,3.76271,15.26966.11111,1.65144.45442,3.29948.42862,4.94497-.03626,2.31354-.25581,4.63001-.50716,6.93319-.52035,4.76786-1.76708,9.3675-3.57493,13.79731-2.1931,5.37371-5.21279,10.25658-8.95393,14.70849-4.79523,5.70627-10.60685,10.09835-17.16363,13.5605-.86835.4585-1.05628.33466-1.50567-.73728-1.40919-3.3614-2.81013-6.72703-4.28418-10.0601-.56831-1.28502-1.29744-2.50256-2.00191-3.7228-.87654-1.51825-.79535-1.71408.9051-1.86702,1.46804-.13205,2.82061-.59039,4.08916-1.35679,2.84613-1.7195,3.49936-4.3143,3.08513-7.39406-.33959-2.52497-2.26637-4.32078-4.81566-4.29643-.90034.0086-1.81341.19119-2.69484.40227-3.30026.79031-6.57258.654-9.8446-.15722-1.0797-.26769-1.94962-.81158-2.7526-1.5894-2.08222-2.01698-4.24277-3.95297-6.33754-5.95735-.28961-.2771-.6204-.82897-.52969-1.13398.57476-1.93285.83032-3.87186.32924-6.00286Z" style="fill:#0099ce;"/><path d="m112.65836,184.57087c-.34877-1.31064-.31483-20.97505.03237-22.02707,2.10567.37793,4.16321.95889,6.16897,1.74124,1.83255.71479,3.5172,1.63543,4.91657,3.06871,3.75219,3.84309,3.54058,10.03446-.61435,13.48727-2.99913,2.49231-6.54442,3.64303-10.50356,3.72985Z" style="fill:#0099ce;"/><path d="m105.81993,136.18348c0,2.90056.0063,5.80112-.00296,8.70165-.00397,1.24492-.16144,1.36415-1.40029,1.07574-2.63841-.61426-5.17976-1.45592-7.39706-3.09165-3.93795-2.9051-5.16613-7.88757-1.81917-12.07743,1.11145-1.39137,2.55041-2.36194,4.13901-3.09996,1.66038-.77139,3.40535-1.27171,5.24732-1.42223,1.09139-.0892,1.23142-.01588,1.23381,1.08804.00637,2.94193.00216,5.88388.00216,8.82584h-.00282Z" style="fill:#0099ce;"/></g></svg>