<?xml version="1.0" encoding="UTF-8"?><svg id="uuid-347f9112-f5d5-407a-810d-4c43079d30e0" xmlns="http://www.w3.org/2000/svg" viewBox="0 0 703.10741 629.13169"><g id="uuid-410fb599-718a-4c76-80f4-021a0d668c66"><path d="m412.08421,628.43518c-34.98706,0-69.98929.59143-104.95325-.3075-12.96268-.33331-25.96362-3.61377-38.70737-6.5802-9.66434-2.24957-15.92752-9.00983-17.22931-19.19299-2.48822-19.46387-5.436-38.91406-6.79364-58.46704-2.18265-31.43579-2.05365-62.96851.94269-94.36029,1.32269-13.8573,3.896-27.65967,6.94385-41.25323,1.08014-4.81757,4.47256-9.75806,8.13385-13.25623,36.99487-35.34644,68.84351-59.67297,92.92429-104.93481,11.12396-20.90851,19.23511-42.96378,17.66528-67.23224-.52228-8.07501-2.70331-16.04297-4.13055-24.05905-1.11493-6.26169.26013-8.31598,6.40167-10.20557,14.06445-4.3273,25.61572.02048,35.12769,10.46506,10.60596,11.6459,14.90753,26.17288,17.58765,41.2356,5.01147,28.16602,3.87085,41.44498.44659,69.62994-1.86395,15.3418-4.91724,30.54199-7.54834,45.78638-1.28741,7.4588,2.16919,12.09015,9.77625,12.10345,29.98901.05237,29.98047-.26434,59.96637.02844,14.96399.14606,30.03064.41699,44.84338,2.28058,13.63525,1.71552,23.62653,9.83783,27.81628,23.42493,4.24274,13.75916.64777,25.96973-8.87335,36.51483-5.31763,5.88947-5.65503,7.64648-2.03357,14.53369,8.87823,16.88452,3.88312,37.17761-11.88116,48.26855-7.33032,5.15735-7.6853,7.40277-2.24725,14.21686,9.43506,11.82245,8.77533,33.67242-1.7179,44.45593-2.57086,2.64191-6.22424,4.30493-9.5379,6.13129-4.57098,2.51935-5.9765,7.08307-3.01544,10.63617,10.4552,12.54541,10.73303,29.33209.68579,42.6496-8.30493,11.00818-19.85144,16.44525-33.1535,16.91583-25.63184.90656-21.29657.91241-46.94855,1.21045-10.16211.1181-20.32678.01953-30.4903.01953-.00006-.2193-.00012-.43866-.00024-.65796Z" style="fill:#0099cd;"/><path d="m227.84264,603.58826c.29999,4.07001.19,8.44-.98999,12.27997-1.98004,6.45001-6.81006,10.26001-13.79004,10.29004-25.98999.08997-51.97998.17999-77.95996-.03003-9.94-.08002-18.78003-8.17999-20.01001-18.97998-2.07001-18.17999-3.76001-36.44-4.82001-54.71002-2.21002-37.79999-1.27002-75.57996,1.98999-113.29999.71002-8.28998,1.5-16.59003,2.75-24.81,1.81-11.94,10.76001-19.31,22.84998-19.32001,11.99005-.01001,23.99005,0,35.98004,0s23.98999-.01001,35.97998,0c12.29999.02002,19,7.10004,18.10999,19.66003-.85999,11.94995-2.28998,23.85999-3.22998,35.81-2.63,33.25-2.92999,66.56-1.13,99.84998.96997,17.78003,3,35.48999,4.27002,53.26001Z" style="fill:#0099cd;"/><path d="m424.36644,55.31178c-11.81775,8.58429-23.62311,17.18561-35.45709,25.74745q-9.50958,6.88016-5.84882,18.05618c4.53741,13.90088,9.03931,27.81342,14.04218,43.21606-16.03467-11.62222-30.97449-22.45084-46.28284-33.54657-15.06073,10.92123-30.11237,21.83594-46.17044,33.48041,1.81693-5.76215,3.26364-10.45056,4.77347-15.11856,3.68558-11.39462,7.20569-22.84897,11.21246-34.1301,1.34515-3.78732.89948-5.77258-2.49524-8.14172-12.56192-8.76674-24.86267-17.90791-37.25085-26.92302-1.27667-.92905-2.48221-1.95589-4.65137-3.67476,17.45819,0,33.71524-.26062,49.95563.14514,5.48532.13707,7.69147-1.59712,9.24316-6.81699,4.6152-15.52576,9.90073-30.85223,15.36414-47.60532,3.32019,10.10899,6.22287,18.90236,9.09515,27.70566,2.42523,7.43295,4.99323,14.82657,7.13922,22.34006.94965,3.32472,2.50195,4.3524,5.93744,4.31525,16.96735-.18361,33.93781-.08356,50.90717-.08356.16223.34479.32446.68958.48663,1.03438Z" style="fill:#0099cd;"/><path d="m198.81996,37.7169c5.06055,15.58192,9.92749,29.70216,14.14658,44.01341,1.5419,5.23029,3.92636,6.83902,9.31866,6.69095,14.79468-.40634,29.60785-.14017,45.97891-.14017-2.34033,1.80157-3.63803,2.84991-4.98541,3.82993-11.17068,8.12512-22.26285,16.3631-33.58295,24.27478-3.25021,2.27161-4.15649,4.21786-2.78253,8.14066,4.50488,12.86185,8.56134,25.88092,12.76804,38.84674.55112,1.69864.97333,3.43909,1.84131,6.53903-14.88614-10.78436-28.67215-20.77173-42.71118-30.94241-14.07999,10.2088-28.052,20.33926-43.00653,31.1821,5.64517-17.44135,10.94446-33.81412,16.35718-50.53729-13.87338-10.10776-27.68109-20.16766-42.52216-30.98044,2.49728-.17447,3.83496-.34741,5.17282-.34909,13.82047-.01727,27.64395-.16754,41.45975.08868,4.43527.08228,6.65753-.89639,8.04773-5.62891,4.30743-14.66286,9.31628-29.11966,14.49979-45.02797Z" style="fill:#0099cd;"/><path d="m546.34624,170.15179c-14.94708-10.83524-28.89758-20.94803-43.01764-31.18372-13.98645,10.13937-27.80072,20.15393-41.61499,30.16849-.27777-.19534-.55554-.39072-.83325-.58606,2.51501-7.86044,5.01672-15.72516,7.54883-23.58011,2.29517-7.11966,4.42975-14.30035,7.02557-21.30951,1.15491-3.11813.46582-4.78-2.11292-6.61926-12.84283-9.15991-25.57104-18.48056-39.32599-28.46027,2.84857-.1402,4.56268-.29547,6.27704-.29773,13.6543-.01776,27.31433-.22824,40.95978.12048,4.55194.11633,6.26654-1.49194,7.53485-5.6387,4.46454-14.59697,9.34509-29.0667,14.52124-44.97856,3.51697,10.73819,6.61737,20.18288,9.70258,29.63255,1.85773,5.68974,3.87787,11.33618,5.45972,17.10229.82422,3.00446,2.34143,3.83676,5.29541,3.81033,14.15265-.12656,28.30701-.05753,42.46075-.05798,1.62512-.00006,3.25018,0,4.87531,0,.16736.33444.33472.66885.50214,1.0033-13.83203,10.08221-27.66406,20.16446-41.62103,30.3378,5.38776,16.64038,10.69061,33.01846,16.36261,50.53665Z" style="fill:#0099cd;"/><path d="m62.793,122.68698c4.88641,14.987,9.46767,28.50952,13.63354,42.15881,1.1489,3.76434,2.9153,4.79004,6.67992,4.73138,14.11728-.22,28.24005-.08813,42.78479.84521-3.233,2.36789-6.4584,4.74631-9.70056,7.10162-8.21631,5.96899-16.34567,12.06494-24.70998,17.81918-3.11368,2.14203-3.89362,4.07513-2.61838,7.78119,4.63715,13.47662,8.87959,27.08902,13.71169,42.0116-8.84254-6.40247-16.57043-11.99283-24.29259-17.59113-4.17841-3.02917-8.44601-5.94748-12.481-9.15762-2.24297-1.78442-3.7951-1.6059-6.06656.07935-11.74583,8.71451-23.63799,17.23178-36.66862,26.68036,5.27992-16.33038,10.14432-31.37552,15.10115-46.70657-12.77989-9.32742-25.47314-18.59161-38.1664-27.8558.10414-.3645.20828-.72903.31242-1.09354,5.60802,0,11.21602-.00049,16.82404.00009,8.66133.00095,17.32887-.18674,25.98097.09659,3.48792.11423,4.96039-1.07578,5.96739-4.31378,4.29314-13.80414,8.83559-27.53076,13.70818-42.58694Z" style="fill:#0099cd;"/><path d="m703.10741,169.90002c-13.58319,9.90207-26.18732,19.09042-39.12921,28.52499,4.9032,15.15472,9.79034,30.25998,15.10278,46.67953-8.13647-5.8782-15.20898-10.98401-22.2774-16.09552-4.72052-3.41364-9.59131-6.64459-14.09296-10.32639-2.6087-2.13364-4.36658-1.79373-6.8797.07217-11.61481,8.62344-23.36871,17.05939-36.17584,26.36389,2.44885-7.72455,4.49677-14.27847,6.60626-20.8125,2.2475-6.96152,4.33362-13.9874,6.92065-20.82227,1.42706-3.77026.74493-5.89233-2.60925-8.23123-11.55219-8.05536-22.85718-16.46518-34.10266-25.78485,3.22314,0,6.44635-.0014,9.66949.00024,11.32556.00586,22.65228-.07153,33.97601.07623,2.96973.03876,4.35248-.85962,5.27594-3.83414,4.04187-13.0195,8.38934-25.94415,12.63702-38.8996.30182-.92053.6925-1.81192,1.42639-3.71298,4.41022,13.57651,8.42523,26.26907,12.66742,38.88525,3.10345,9.22971.82281,7.3743,10.47162,7.47955,11.65723.1272,23.31683.02756,34.97534.05606,1.43622.00351,2.87195.19135,5.53809.38153Z" style="fill:#0099cd;"/></g></svg>