<?xml version="1.0" encoding="UTF-8"?><svg id="uuid-6aa4bf84-7f04-40c7-8e3d-891b9b665735" xmlns="http://www.w3.org/2000/svg" viewBox="0 0 290.44795 225.09666"><g id="uuid-8058060d-a906-4d78-9943-36b4ca1eb0d4"><path d="m165.60865,180.9459c1.68999-1.87724,3.16528-3.43755,4.55296-5.07225,4.07349-4.79866,4.11089-10.34682-.40475-14.73598-2.58612-2.51367-5.76793-4.46284-8.85114-6.39561-1.45911-.91466-2.59148-1.66959-3.23454-3.45045-1.66066-4.59901-5.39487-6.52248-10.07423-6.82433-1.49294-.0963-2.99796.01358-4.49623-.0219-5.73441-.1358-10.01693,1.83791-11.93947,7.71837-.36361,1.11217-1.46449,2.25706-2.52583,2.82538-11.67426,6.25134-15.25442,20.16595-9.66877,31.43826.13659.27567.1373.61864.2753,1.28957-14.8877-1.29233-29.41283-3.57523-43.10435-9.66626-1.66363-.74013-3.23753-1.70375-4.79298-2.66132-5.30866-3.26807-7.85146-7.90538-7.1823-14.25259.78315-7.42833.55315-14.93999,2.55706-22.26674,2.27795-8.32877,7.06293-13.74887,15.77011-15.3512,3.59142-.66093,7.16035-1.44974,10.7282-2.23192,9.03138-1.97997,17.34512-5.61104,24.84971-11.2299,3.68133,5.96626,9.71037,7.21613,15.56238,8.3026,8.58216,1.59337,17.22602,1.3228,25.75141-.78639,5.65872-1.39998,8.19852-2.95361,11.65706-7.05583.29967.02402.68066-.06183.88715.08987,9.20631,6.76376,19.72961,10.10702,30.8347,12.01745,13.81783,2.37711,18.74164,7.30713,20.81299,21.43454.91473,6.23871,1.18924,12.57722,1.61461,18.87985.33183,4.91679-1.91872,8.59894-5.82065,11.47046-6.16364,4.53598-13.28621,6.89014-20.54373,8.65012-7.25294,1.75885-14.67625,2.8183-22.02963,4.15833-2.96956.54112-5.50069.10999-7.34859-2.73865-.86678-1.33617-2.39589-2.24266-3.83643-3.53346Z" style="fill:#0099ce;"/><path d="m144.63586,7.39023c11.22408-.63016,20.3103,4.43177,28.83943,10.77773,3.71724,2.76575,5.96732,6.84145,6.95425,11.26706,1.33232,5.97438,2.03918,12.0875,3.04485,18.13604.21346,1.28365.3172,2.66537.88121,3.79785,3.44374,6.91483,2.2953,16.6962-2.60612,22.39-1.26419,1.46856-2.38351,3.1556-3.17795,4.91866-3.59152,7.97063-8.1682,15.22525-14.69449,21.14101-.61617.55852-1.22798,1.12407-1.87234,1.6489-10.62016,8.65029-21.79846,9.03743-32.93795,1.02486-7.91866-5.69583-13.14527-13.53568-17.21194-22.23262-1.19024-2.54544-2.4185-4.89314-4.51155-6.99399-4.90347-4.92175-5.71825-15.63892-2.32715-21.89082.66926-1.23387.77051-2.80505,1.00225-4.24187.92331-5.72449,1.4689-11.5326,2.77024-17.1675,1.52245-6.59232,5.45968-11.44654,11.54786-14.86305,5.24684-2.94438,10.31236-6.06343,16.39119-6.88622,2.62524-.35533,5.27149-.55543,7.90821-.82605Z" style="fill:#0099ce;"/><path d="m139.07287,160.04142c.31143-2.20053.58519-4.13484.88456-6.25011,3.0315-.96677,5.9278-.8286,9.21462-.1367.29588,1.89325.59445,3.80359.91861,5.87776,2.71524,1.12732,5.58519,2.01956,8.14056,3.46715,2.37872,1.34749,4.42247,3.28633,6.71069,5.03917-2.15253,4.16556-5.19008,6.65134-8.24646,9.41425-1.76102-1.2408-3.3611-2.39482-4.98854-3.50888-2.63071-1.80084-5.55919-2.11421-8.60818-1.56003-1.75773.31947-3.10291,1.2776-3.48076,3.11955-.38673,1.88525.53141,3.25426,2.13983,4.09972,1.46274.76886,2.99191,1.42661,4.53275,2.02852,3.55504,1.38875,7.23126,2.50661,10.68306,4.11137,5.78996,2.69179,9.69313,6.80843,9.79684,13.75603.10771,7.21306-2.89572,12.52177-9.12897,15.95528-2.30917,1.27197-4.85886,2.10725-7.57475,3.25865-.23674,1.9583-.48813,4.03777-.77173,6.38351h-9.29221c-.28816-2.15051-.5673-4.23364-.88704-6.61975-6.23171-2.46657-12.57056-5.01424-16.55779-11.26196,2.19369-3.55017,5.33252-5.92068,8.57922-8.4312,1.82332,1.39513,3.52227,2.71725,5.24465,4.00813,3.05486,2.28951,6.45798,3.37282,10.29311,2.87971,2.75438-.35417,4.5804-1.85292,5.03287-4.10686.4213-2.09862-.38918-3.67288-3.03677-5.16338-1.57587-.88718-3.36948-1.37773-5.01743-2.1487-3.7524-1.75545-7.65077-3.28625-11.17005-5.43265-5.59006-3.40939-8.26189-8.67482-7.49721-15.222.75361-6.45226,4.84847-10.34894,10.79794-12.47041.9325-.33253,1.88017-.62254,3.28857-1.08618Z" style="fill:#0099ce;"/><path d="m251.57838,113.20174c1.10196-1.22406,2.06393-2.24145,2.96876-3.30737,2.65612-3.12897,2.68051-6.74665-.26392-9.60861-1.68628-1.63904-3.76098-2.91-5.77139-4.17027-.95141-.5964-1.68977-1.08866-2.10909-2.24987-1.08283-2.99879-3.51773-4.25299-6.56891-4.44981-.97347-.06279-1.95482.00886-2.93177-.01428-3.73912-.08855-6.53155,1.19841-7.78514,5.03277-.23709.72519-.95492,1.47172-1.64697,1.84229-7.61221,4.07619-9.94666,13.14923-6.30453,20.49935.08906.17975.08953.40338.17951.84086-9.70753-.84266-19.17866-2.33123-28.10623-6.30289-1.08477-.4826-2.11104-1.11093-3.12527-1.73531-3.46152-2.13095-5.11955-5.15471-4.68322-9.29342.51065-4.84365.36068-9.74163,1.66733-14.51905,1.48534-5.43078,4.60539-8.96496,10.28291-10.00976,2.34179-.43096,4.66891-.9453,6.99533-1.45532,5.88892-1.29104,11.3099-3.65868,16.20327-7.32247,2.40041,3.89031,6.33166,4.70528,10.14746,5.41372,5.59601,1.03896,11.23224.86253,16.79123-.51277,3.68977-.91286,5.34585-1.92591,7.60099-4.60076.1954.01567.44383-.04032.57846.0586,6.00298,4.41031,12.86471,6.59029,20.10579,7.83599,9.00992,1.54999,12.2205,4.76462,13.57113,13.97641.59645,4.06796.77544,8.20099,1.05281,12.31062.21637,3.206-1.2511,5.60694-3.79536,7.47932-4.019,2.95769-8.66328,4.49272-13.39556,5.64032-4.72929,1.14686-9.56966,1.83767-14.36444,2.71144-1.9363.35284-3.58673.07172-4.79165-1.78574-.56518-.87125-1.56224-1.46233-2.50154-2.304Z" style="fill:#0099ce;"/><path d="m237.90305.03462c7.31867-.4109,13.24335,2.88974,18.80478,7.02763,2.42383,1.80341,3.89099,4.46097,4.53453,7.3467.86874,3.8956,1.32965,7.88167,1.98539,11.82562.13918.83701.20683,1.73795.57459,2.47639,2.24549,4.50882,1.49665,10.88677-1.69933,14.59942-.82432.95758-1.55417,2.05761-2.07218,3.20722-2.34186,5.19725-5.32608,9.92764-9.58155,13.78502-.40177.36418-.80071.73295-1.22086,1.07517-6.92489,5.64043-14.21371,5.89286-21.47722.66826-5.16337-3.71397-8.57139-8.82595-11.22306-14.4968-.7761-1.65976-1.57699-3.19057-2.94176-4.56044-3.19731-3.20923-3.72859-10.19737-1.51742-14.27392.43639-.80455.50241-1.82904.65352-2.76592.60204-3.73266.9578-7.51984,1.80634-11.19408.99272-4.29853,3.55999-7.46373,7.52979-9.69146,3.42121-1.91989,6.72418-3.95367,10.68789-4.49017,1.71179-.2317,3.43728-.36217,5.15656-.53863Z" style="fill:#0099ce;"/><path d="m234.2757,99.57096c.20307-1.43486.38157-2.69613.57678-4.07539,1.97669-.63038,3.86523-.54029,6.0084-.08914.19293,1.23449.38761,2.48013.59898,3.8326,1.77047.73507,3.64183,1.31686,5.30806,2.26076,1.55105.87863,2.88368,2.14285,4.37571,3.28579-1.40356,2.71616-3.3842,4.33701-5.37711,6.13857-1.14827-.80906-2.19161-1.56155-3.25278-2.28797-1.71535-1.17424-3.62487-1.37857-5.61297-1.01722-1.14613.20831-2.02326.83306-2.26963,2.03411-.25217,1.22928.34651,2.12194,1.39528,2.67322.95378.50134,1.95088.93022,2.95558,1.3227,2.31807.90553,4.71515,1.63444,6.9659,2.68082,3.77535,1.75518,6.32041,4.43944,6.38804,8.96963.07023,4.70328-1.88816,8.16483-5.95255,10.40365-1.5057.82939-3.16822,1.37404-4.93912,2.12481-.15437,1.27691-.31828,2.63283-.50321,4.16238h-6.05899c-.1879-1.40224-.36991-2.76055-.57839-4.31641-4.06339-1.60833-8.19664-3.26954-10.79652-7.34337,1.4304-2.31489,3.47707-3.86059,5.59408-5.49757,1.1889.90969,2.2967,1.77179,3.41978,2.61351,1.99192,1.49287,4.21093,2.19925,6.71163,1.87772,1.796-.23094,2.98665-1.2082,3.28169-2.67788.27471-1.36841-.25376-2.39491-1.98013-3.36678-1.02755-.57848-2.19707-.89835-3.27162-1.40106-2.44676-1.14464-4.98869-2.14281-7.28344-3.54236-3.645-2.2231-5.38717-5.65642-4.88856-9.92552.49139-4.2072,3.16145-6.74803,7.0408-8.13134.60804-.21683,1.22596-.40593,2.14432-.70825Z" style="fill:#0099ce;"/><path d="m66.21668,113.20174c1.10196-1.22406,2.06393-2.24145,2.96876-3.30737,2.65612-3.12897,2.68051-6.74665-.26392-9.60861-1.68628-1.63904-3.76098-2.91-5.77139-4.17027-.95141-.5964-1.68977-1.08866-2.10909-2.24987-1.08283-2.99879-3.51773-4.25299-6.56891-4.44981-.97347-.06279-1.95482.00886-2.93177-.01428-3.73912-.08855-6.53155,1.19841-7.78514,5.03277-.23709.72519-.95492,1.47172-1.64697,1.84229-7.61221,4.07619-9.94666,13.14923-6.30453,20.49935.08906.17975.08953.40338.17951.84086-9.70753-.84266-19.17866-2.33123-28.10623-6.30289-1.08477-.4826-2.11104-1.11093-3.12527-1.73531-3.46152-2.13095-5.11955-5.15471-4.68322-9.29342.51065-4.84365.36068-9.74163,1.66733-14.51905,1.48534-5.43078,4.60539-8.96496,10.28291-10.00976,2.34179-.43096,4.66891-.9453,6.99533-1.45532,5.88892-1.29104,11.3099-3.65868,16.20327-7.32247,2.40041,3.89031,6.33166,4.70528,10.14746,5.41372,5.59601,1.03896,11.23224.86253,16.79123-.51277,3.68977-.91286,5.34585-1.92591,7.60099-4.60076.1954.01567.44383-.04032.57846.0586,6.00298,4.41031,12.86471,6.59029,20.10579,7.83599,9.00992,1.54999,12.2205,4.76462,13.57113,13.97641.59645,4.06796.77544,8.20099,1.05281,12.31062.21637,3.206-1.2511,5.60694-3.79536,7.47932-4.019,2.95769-8.66328,4.49272-13.39556,5.64032-4.72929,1.14686-9.56966,1.83767-14.36444,2.71144-1.9363.35284-3.58673.07172-4.79165-1.78574-.56518-.87125-1.56224-1.46233-2.50154-2.304Z" style="fill:#0099ce;"/><path d="m52.54135.03462c7.31867-.4109,13.24335,2.88974,18.80478,7.02763,2.42383,1.80341,3.89099,4.46097,4.53453,7.3467.86874,3.8956,1.32965,7.88167,1.98539,11.82562.13918.83701.20683,1.73795.57459,2.47639,2.24549,4.50882,1.49665,10.88677-1.69933,14.59942-.82432.95758-1.55417,2.05761-2.07218,3.20722-2.34186,5.19725-5.32608,9.92764-9.58155,13.78502-.40177.36418-.80071.73295-1.22086,1.07517-6.92489,5.64043-14.21371,5.89286-21.47722.66826-5.16337-3.71397-8.57139-8.82595-11.22306-14.4968-.7761-1.65976-1.57699-3.19057-2.94176-4.56044-3.19731-3.20923-3.72859-10.19737-1.51742-14.27392.43639-.80455.50241-1.82904.65352-2.76592.60204-3.73266.9578-7.51984,1.80634-11.19408.99272-4.29853,3.55999-7.46373,7.52979-9.69146,3.42121-1.91989,6.72418-3.95367,10.68789-4.49017,1.71179-.2317,3.43728-.36217,5.15656-.53863Z" style="fill:#0099ce;"/><path d="m48.914,99.57096c.20307-1.43486.38157-2.69613.57678-4.07539,1.97669-.63038,3.86523-.54029,6.0084-.08914.19293,1.23449.38761,2.48013.59898,3.8326,1.77047.73507,3.64183,1.31686,5.30806,2.26076,1.55105.87863,2.88368,2.14285,4.37571,3.28579-1.40356,2.71616-3.3842,4.33701-5.37711,6.13857-1.14827-.80906-2.19161-1.56155-3.25278-2.28797-1.71535-1.17424-3.62487-1.37857-5.61297-1.01722-1.14613.20831-2.02326.83306-2.26963,2.03411-.25217,1.22928.34651,2.12194,1.39528,2.67322.95378.50134,1.95088.93022,2.95558,1.3227,2.31807.90553,4.71515,1.63444,6.9659,2.68082,3.77535,1.75518,6.32041,4.43944,6.38804,8.96963.07023,4.70328-1.88816,8.16483-5.95255,10.40365-1.5057.82939-3.16822,1.37404-4.93912,2.12481-.15437,1.27691-.31828,2.63283-.50321,4.16238h-6.05899c-.1879-1.40224-.36991-2.76055-.57839-4.31641-4.06339-1.60833-8.19664-3.26954-10.79652-7.34337,1.4304-2.31489,3.47707-3.86059,5.59408-5.49757,1.1889.90969,2.2967,1.77179,3.41978,2.61351,1.99192,1.49287,4.21093,2.19925,6.71163,1.87772,1.796-.23094,2.98665-1.2082,3.28169-2.67788.27471-1.36841-.25376-2.39491-1.98013-3.36678-1.02755-.57848-2.19707-.89835-3.27162-1.40106-2.44676-1.14464-4.98869-2.14281-7.28344-3.54236-3.645-2.2231-5.38717-5.65642-4.88856-9.92552.49139-4.2072,3.16145-6.74803,7.0408-8.13134.60804-.21683,1.22596-.40593,2.14432-.70825Z" style="fill:#0099ce;"/></g></svg>