<?xml version="1.0" encoding="UTF-8"?><svg id="uuid-0fa96dde-e47f-4129-a237-ee3ec547611c" xmlns="http://www.w3.org/2000/svg" viewBox="0 0 384 374.08212"><g id="uuid-87b2add5-410d-46ee-bd3d-41b1dbb65b85"><path d="m0,265.40237c.99458-3.70722,1.76178-7.49368,3.02132-11.1086,7.18458-20.6198,27.5306-33.44659,49.6028-31.40337,21.98649,2.03529,39.45889,18.51373,42.66971,40.24235,3.47329,23.50479-9.26827,44.95214-31.31143,52.70524-21.86187,7.68938-45.96214-1.06492-57.47407-21.41542-2.76037-4.87971-3.84614-10.70693-5.6996-16.09923-.27656-.80459-.5395-1.61387-.80874-2.42097,0-3.49999,0-7.00001,0-10.5Zm66.29978,4.25116c-.06573-9.84762-8.6499-18.29693-18.50796-18.21723-10.1159.08178-18.07489,8.30072-17.96529,18.55204.10578,9.8936,8.30743,17.99526,18.22006,17.99792,10.09448.0027,18.32043-8.25909,18.25319-18.33273Z" style="fill:#0099ce;"/><path d="m384,276.65237c-1.5827,4.95026-2.67311,10.12782-4.83515,14.81058-8.37666,18.14296-28.20181,29.14471-47.75423,26.90302-21.562-2.47213-38.23611-17.46133-42.37582-38.09383-5.227-26.0514,11.67151-51.75506,37.2496-56.65901,27.2666-5.22764,52.46146,12.02696,56.96104,38.98844.11781.70592.49715,1.36819.75455,2.0508v12Zm-45.99467,11.33574c9.97195.01128,18.39855-8.43963,18.32373-18.3766-.07189-9.54941-8.63578-18.06562-18.28102-18.17924-10.02203-.11806-18.32382,8.10047-18.40153,18.21703-.07613,9.91253,8.34803,18.32748,18.35882,18.33881Z" style="fill:#0099ce;"/><path d="m223.12324,257.4411c-4.20454,1.71119-7.96914,3.04706-11.52365,4.80716-1.0946.54204-2.18754,2.19408-2.2914,3.42158-.30448,3.5991-.06095,7.2412-.12463,10.86486-.08821,5.01874-3.10709,8.74306-8.1359,9.03623-6.34234.36974-12.74073.36946-19.08154-.0179-4.85555-.2967-7.84535-3.97247-7.96141-8.79776-.09013-3.74762.17382-7.51584-.1417-11.23911-.10291-1.21433-1.31089-2.6567-2.41537-3.38649-1.52639-1.00854-3.4514-1.39835-5.17378-2.12846-6.14878-2.60651-6.38555-2.81699-10.7541,2.50777-8.93638,10.89246-13.83316,8.39612-21.10475.32204-1.92127-2.13332-4.13222-4.00598-6.04996-6.14218-3.648-4.06352-3.40264-9.22343.58432-12.9714,2.99652-2.81689,6.09532-5.52502,9.20352-8.33118-1.70177-4.16615-3.23095-8.22331-5.06458-12.13788-.37299-.79628-1.873-1.44214-2.88669-1.49281-3.61583-.18082-7.24853.00957-10.87008-.09913-4.73884-.14225-7.82532-2.38035-8.2023-7.05123-.53994-6.69001-.72432-13.47519-.2418-20.16064.40051-5.54908,3.99294-8.23064,9.2715-8.31915,3.99346-.06697,8.78979,1.22152,11.74472-.55784,2.70184-1.62694,3.23044-6.66103,5.06568-10.00199,1.16816-2.12658,1.17944-3.47252-.81933-5.03064-2.45756-1.91579-4.69494-4.11906-6.98397-6.24492-4.20042-3.90105-4.57032-9.09971-.74079-13.22416,3.31443-3.56966,6.75689-7.03697,10.33644-10.33962,4.13814-3.81801,9.01767-3.51877,12.97202.51175.08752.0892.17071.18264.25803.27204,2.85856,2.92672,5.33275,7.52105,8.68798,8.29477,3.1426.7247,7.2996-2.43677,10.83556-4.23199,1.11107-.56409,2.24857-2.1922,2.35086-3.41864.31062-3.72421.0449-7.49218.14545-11.23931.12397-4.61924,3.09059-8.35207,7.7161-8.62958,6.5888-.39529,13.23802-.39296,19.82581.01488,4.52934.28039,7.52557,4.15499,7.62392,8.72985.08057,3.74803-.17775,7.51586.13683,11.2392.10254,1.21349,1.30795,2.6708,2.41612,3.38302,1.64735,1.05878,3.67342,1.51508,5.50896,2.29676q5.84827,2.49051,10.21353-2.29396c.08418-.09239.17235-.18174.25008-.27934,8.4082-10.55751,13.22845-9.04847,20.99499-.37293,1.74809,1.95266,3.72501,3.69848,5.54489,5.58928,4.39034,4.56144,4.25784,9.44451-.27624,13.73472-2.97794,2.81778-7.57015,5.3074-8.35435,8.66462-.73288,3.13752,2.4638,7.29501,4.23598,10.85161.51226,1.02803,2.03396,2.08551,3.16704,2.17336,3.60329.27929,7.24402.02411,10.86564.1315,4.73394.14038,7.826,2.38762,8.20036,7.07418.53483,6.69553.67202,13.4813.22671,20.1785-.36706,5.52029-4.09451,8.22933-9.68303,8.28056-3.74872.03438-8.27348-1.2261-11.0232.44385-2.62974,1.59707-3.16447,6.38777-5.0845,9.48704-1.6634,2.68494-1.38579,4.36764,1.11491,6.21861,2.2991,1.70181,4.32278,3.78328,6.42055,5.74791,4.39281,4.11397,4.55207,9.09137.3569,13.45718-3.11707,3.2438-6.30569,6.42238-9.54494,9.54442-4.555,4.39021-9.44815,4.2401-13.72419-.36015-2.71507-2.92094-5.38037-5.8881-8.01718-8.77883Zm-69.51546-53.90327c.03639,22.06325,17.46914,39.40128,39.55783,39.34291,21.4265-.05663,39.49091-18.02362,39.34188-39.45058-.16569-23.8172-19.351-40.10986-41.35854-39.49489-20.92067.58461-37.57738,17.65239-37.54118,39.60255Z" style="fill:#0099ce;"/><path d="m104.77522,311.00465c58.35084,41.65494,116.40511,43.1532,174.61331.05287,7.26027,7.8783,14.4315,15.65998,21.60551,23.44469-57.38736,49.97639-152.16823,55.4501-217.94501.13598,7.1685-7.79782,14.32794-15.5858,21.72619-23.63354Z" style="fill:#0099ce;"/><path d="m239.90188,48.11553c-.05761,26.68068-21.27528,47.77147-47.97459,47.6877-26.70186-.08378-47.78911-21.23882-47.77695-47.93054C144.16255,21.03431,165.54416-.19788,192.3585.00139c26.77174.19895,47.60133,21.27859,47.54338,48.11413Zm-66.09068-1.35483c-.08081,10.14819,8.03985,18.43572,18.11316,18.48537,10.14709.05001,18.37319-8.09797,18.37505-18.20054.00181-9.8662-8.50273-18.35744-18.38761-18.35886-9.94759-.00143-18.02085,8.05998-18.10059,18.07403Z" style="fill:#0099ce;"/><path d="m120.05444,47.19013c4.14657,9.88208,8.18385,19.50367,12.33824,29.40439-52.82474,25.23771-76.94831,68.08013-77.79593,125.46027H20.88387c-2.07089-52.34396,29.72538-122.88668,99.17057-154.86465Z" style="fill:#0099ce;"/><path d="m265.02278,47.30633c62.37939,28.47367,99.67538,94.64716,98.38451,154.75469h-30.70498c-.56971-6.62908-.88039-13.33218-1.75937-19.95993-4.9303-37.17593-22.94634-66.82805-52.38306-89.64595-6.78282-5.2577-14.30463-9.55702-21.40604-14.41483-.91441-.62552-2.11656-2.21961-1.87962-2.92869,3.1095-9.30565,6.45394-18.5328,9.74856-27.80529Z" style="fill:#0099ce;"/></g></svg>