<?xml version="1.0" encoding="UTF-8"?><svg id="uuid-e9acc912-b7a0-42f1-b14d-d732c184a971" xmlns="http://www.w3.org/2000/svg" viewBox="0 0 200.10858 225"><g id="uuid-a54a4ecb-ee1f-451f-8713-ce1034570135"><path d="m163.22049,58.15997c-.93994-.94-1.2998-2.64996-1.52979-4.06995-3.91016-24.66003-17.62012-41.40002-40.84009-50.28003-4.58008-1.76001-9.52002-2.57001-14.30005-3.81h-13c-.58008.27002-1.1499.72998-1.75.78998-24.08008,2.41003-47.25,21.92004-52.68994,48.86005-.90015,4.42999-1.70996,8.59998-4.80005,12.19-1.16992,1.34998-1.65991,3.66998-1.68994,5.56995-.15015,11.32001-.22998,22.65002-.02002,33.98004.12988,6.89001,5.91992,12.54999,12.75,11.77997,4.12988-.45996,8.03003-2.96997,12.15991-4.59998.34009.72998,1.09009,2.38,1.88013,4.01001,4.95996,10.16998,12.26001,18.10999,22.36987,23.34998,2.21997,1.14001,3.93994,1.75,6.01001-.81,3.65991-4.52997,8.83008-6.20001,14.63989-6.12,6.83008.09003,13.66016-.07001,20.49023.04999,5.10986.08002,9.1499-1.88,11.81982-6.12,3.08008-4.89001,5.81006-10,9.07007-15.67999,1.05005,1.94,2.75,3.75,2.96997,5.73999,1.66016,15.06-8.70996,26.59003-23.91992,26.81-6.83008.10004-13.66016-.02997-20.48999.04004-5.77002.04999-8.92993,2.89996-8.82007,7.76996.11011,4.57001,3.34009,7.37,8.71997,7.40002,7.33008.04999,14.65991.03998,21.98999.01001,20.7002-.08002,37.75-16.78003,38.26001-37.56.09009-3.67999.11011-7.01001,2.90015-10.13,1.5498-1.73999,2.00977-4.89001,2.07983-7.42999.22998-9.49005-.03979-18.99005.14014-28.48004.09985-5.02997-.66016-9.51996-4.40015-13.26001Zm-18.97998,3.73004c-19.38989-43.17004-69.42993-42-87.03003-.33002-3.48999-2.32001-4-5.17999-2.98999-9.22998,5.52002-22.27002,24.36011-37.26001,46.62012-36.75,22.45996.51996,40.96997,16.02997,45.25,38.33997.46997,2.45001-1.18994,5.29999-1.8501,7.97003Z" style="fill:#0099ce;"/><path d="m200.0806,209.83002c-.42993-9.89001-1.67993-19.51001-5.51001-28.69-6.33008-15.19-16.62988-26.89001-30.87988-35.54004-7.65015,9.74005-16.97021,17.05005-28.88013,18.61005-11.93994,1.56-24.16992,1.37-36.26001,1.13-5.87988-.11005-10.35986-3.94-13.48999-9.13-.84009-1.38-2.43994-2.41003-3.86987-3.31-6.87012-4.28003-14.04004-8.11005-20.59009-12.82001-2.79004-2.01001-4.84009-2.53003-7.96997-1.57001C20.56058,148.35999-.11935,176.75.00052,210.34998c.03003,6.93005,2.14014,11.84003,8.55005,14.65002h183c6.60986-2.95001,8.84009-8.04999,8.53003-15.16998Zm-157.81006.76996l-7.57983-3.97998-7.57007,3.97998,1.44995-8.44-6.12988-5.96997,8.46973-1.22998,3.78027-7.67004,3.78979,7.67004,8.46997,1.22998-6.12988,5.96997,1.44995,8.44Zm32.67993,0l-7.56982-3.97998-7.58008,3.97998,1.44995-8.44-6.12988-5.96997,8.46997-1.22998,3.79004-7.67004,3.77979,7.67004,8.47021,1.22998-6.13013,5.96997,1.44995,8.44Zm32.68018,0l-7.57007-3.97998-7.58008,3.97998,1.44995-8.44-6.12988-5.96997,8.46997-1.22998,3.79004-7.67004,3.78003,7.67004,8.46997,1.22998-6.13013,5.96997,1.4502,8.44Zm32.67993,0l-7.57007-3.97998-7.58008,3.97998,1.4502-8.44-6.13013-5.96997,8.46997-1.22998,3.79004-7.67004,3.78003,7.67004,8.46997,1.22998-6.12988,5.96997,1.44995,8.44Zm32.67993,0l-7.56982-3.97998-7.58008,3.97998,1.44995-8.44-6.13013-5.96997,8.47021-1.22998,3.79004-7.67004,3.77979,7.67004,8.47021,1.22998-6.12012,5.96997,1.43994,8.44Z" style="fill:#0099ce;"/></g></svg>