<?xml version="1.0" encoding="UTF-8"?><svg id="uuid-7077592c-3521-49c6-8983-42e9d0ee4b23" xmlns="http://www.w3.org/2000/svg" viewBox="0 0 799.97446 799.97541"><g id="uuid-d58cbce9-6715-46eb-b126-f6ea7a66c558"><path d="m400.11806,0c221.00201.0234,399.93005,179.23329,399.85638,400.48622-.07355,220.83099-179.51581,399.65497-400.87033,399.48907C178.21405,799.80977-.20854,620.20626.00018,398.22981.20655,178.75919,179.83673-.02336,400.11806,0Zm-.21054,66.84051c-184.28918.01974-332.94282,148.62383-333.08311,332.97213-.1402,184.23254,148.53832,333.16846,332.74638,333.32233,184.58237.15417,333.42545-148.4231,333.57889-332.98306.15332-184.43759-148.70935-333.33119-333.24216-333.31139Z" style="fill:#0198c5;"/><path d="m599.44972,200.22901c22.50757,22.43501,44.4375,44.2943,65.84741,65.63521-110.87665,110.86194-221.81116,221.78174-332.4747,332.43066-65.4657-65.48199-131.88681-131.91956-197.82835-197.87747,21.61209-21.56799,43.68942-43.60025,66.21461-66.0795,43.46613,43.49249,87.69662,87.74982,132.05356,132.13367,88.90793-88.9263,177.49899-177.53574,266.18747-266.24257Z" style="fill:#0198c5;"/></g></svg>