<?xml version="1.0" encoding="UTF-8"?><svg id="uuid-2e63fb8f-1243-45ca-87e9-73f49fa8b417" xmlns="http://www.w3.org/2000/svg" viewBox="0 0 599.66342 348.94183"><g id="uuid-55883d6d-2e37-4e08-843b-dc024a48a238"><path d="m372.88946,289.52586c2.80334,22.60034-17.58441,41.91089-43.67615,31.1619-1.17514,12.48932-7.45721,21.34497-18.98145,26.27472-7.27588,3.11243-18.44641,2.1358-24.69583-2.26917,6.18915-6.13733,12.31879-12.20041,18.43057-18.28143,4.24701-4.22562,8.59143-8.36197,12.67847-12.73795,9.69128-10.37637,12.38702-22.63211,7.89886-35.91199-4.24838-12.57031-13.59283-20.37262-26.54489-22.90356-5.55783-1.08603-11.50458-.18173-17.72629-.18173-.6337-12.33447-6.60294-22.40198-17.86667-28.88983-9.08484-5.23282-18.87558-5.65256-29.29916-2.50595-2.26022-9.95639-7.09393-18.37991-15.85257-24.13181-8.83072-5.79929-18.43314-7.02634-28.02664-4.62164-1.83063-5.71762-2.9093-11.43231-5.39722-16.448-10.35126-20.86816-38.69489-25.30341-55.21515-8.88345-10.04459,9.98364-20.0564,20.00061-30.02682,30.05823-1.80054,1.81628-3.0246,2.88754-5.75182.84949-28.7115-21.45633-57.55086-42.74164-86.35815-64.06976-6.84727-5.06955-8.11266-10.06119-4.52406-17.6716C19.09698,82.00767,36.23371,45.65034,53.356,9.2862c4.90662-10.42059,10.16835-11.76329,19.9827-5.56815,13.85281,8.74438,27.75423,17.4249,41.85371,25.7626,26.02887,15.39212,53.23306,17.84952,82.25375,8.76633,17.59415-5.50679,35.85651-9.23045,54.06546-12.2831,10.16748-1.70451,20.85361-.72054,31.2767-.2701,3.54874.15337,7.00787,2.37897,9.62784,3.33614-5.73383,6.39879-10.86813,12.91821-16.80038,18.60524-20.30508,19.46558-40.97028,38.55499-61.33127,57.96298-8.74069,8.3316-10.76242,22.68375-4.72067,32.95477,10.82416,18.40112,26.23804,29.185,48.44366,27.92618,11.01871-.62466,21.28519-4.24884,30.33679-10.20212,13.41183-8.82098,26.72574-17.93561,39.16946-28.04745,15.76248-12.80878,31.1503-12.86227,45.45114,1.43015,27.80859,27.79224,55.62598,55.57578,83.39325,83.4093,12.36554,12.39502,13.18317,28.95441,1.8642,41.96271-7.69238,8.84039-17.72638,11.11578-28.92468,8.81531-2.55548-.52499-4.9845-1.66592-7.64056-2.58157,1.05322,13.14935-3.04272,23.96402-14.67212,30.82697-11.46863,6.7681-22.77167,5.47064-34.09552-2.56653Z" style="fill:#0198c5;"/><path d="m338.74685,19.42068c14.60062-.1088,25.94241,5.65555,37.84714,9.59357,15.01813,4.96788,30.17023,9.81284,45.59674,13.19595,21.19922,4.64914,41.16504-.60146,59.63971-11.32431,15.45154-8.96822,30.63257-18.4095,45.81085-27.83855,8.40179-5.21935,13.96411-3.76912,18.22437,5.33513,11.28479,24.11591,22.51361,48.25807,33.8335,72.35747,5.76392,12.27097,11.6322,24.49353,17.53583,36.69806,4.17236,8.62552,3.1394,13.24353-4.4325,18.85492-26.79169,19.85471-53.61993,39.6604-80.34131,59.60922-6.3891,4.76974-12.36597,10.08777-18.62689,15.03397-6.99243,5.52396-12.54413,8.367-21.40045-.70477-28.73657-29.43539-57.90558-58.44879-86.93451-87.59842-7.94653-7.97958-16.55402-14.94968-28.19354-16.66006-11.23465-1.65088-21.89679-.17374-31.25601,6.73459-13.20795,9.74918-26.18137,19.81903-39.47308,29.4509-12.69675,9.20074-27.06192,11.38437-42.1763,8.26859-11.1449-2.29745-21.74448-16.10022-21.90643-27.40619-.07401-5.16568,2.54276-8.70947,6.09897-11.96182,14.97839-13.69849,29.91791-27.43951,44.85846-41.17926,14.81873-13.62761,29.70941-27.17883,44.39105-40.95277,6.42599-6.02872,13.14496-10.78777,20.90442-9.5062Z" style="fill:#0198c5;"/><path d="m312.91156,289.37803c.3894,6.52963-2.59009,11.73727-6.84363,16.05719-12.2478,12.43884-24.59076,24.79327-37.19318,36.87112-12.77859,12.24677-31.80029,6.80426-36.39914-10.27557-2.20288-8.18137.82138-15.11551,6.45917-20.86395,12.25253-12.49304,24.54175-24.95963,37.14484-37.09549,6.87808-6.62308,15.2565-8.61053,24.25247-4.44916,8.30679,3.84259,12.39493,10.64331,12.57947,19.75586Z" style="fill:#0198c5;"/><path d="m114.95819,253.65104c-9.39203-.1655-16.01312-4.58716-19.83646-13.16379-3.29399-7.38922-1.53932-17.18103,4.31186-23.08026,12.77512-12.87997,25.59744-25.71423,38.50314-38.46323,8.68381-8.5784,21.68082-8.37369,30.30817.27505,8.65445,8.67593,8.74258,21.49445.06415,30.25323-12.53418,12.65021-25.19116,25.17868-37.72626,37.82797-4.33588,4.37543-9.43054,6.58127-15.6246,6.35101Z" style="fill:#0198c5;"/><path d="m138.63516,263.8545c-.24136-3.68619,2.20029-8.70816,6.27875-12.84583,12.38956-12.5694,24.80569-25.11746,37.44159-37.43784,12.75266-12.43417,32.15125-7.00729,36.7858,10.17355,1.98337,7.35257-.1319,13.97485-5.26376,19.24014-12.89862,13.23389-25.99896,26.27563-39.20978,39.19885-6.60852,6.46466-14.71387,7.56543-23.00482,4.00439-8.52539-3.66174-12.89062-10.55447-13.02777-22.33328Z" style="fill:#0198c5;"/><path d="m185.85818,294.9008c-.23907-6.89236,2.31671-11.99301,6.56195-16.27106,12.43201-12.52789,24.87811-25.04324,37.44669-37.43372,8.62543-8.50317,21.87067-8.57297,30.48853-.40961,8.42038,7.97629,8.93616,21.78339.54565,30.4624-12.61282,13.04642-25.5,25.83423-38.49411,38.50269-6.85944,6.68759-15.18115,7.86624-23.92535,4.19257-8.0159-3.36768-12.64041-10.95761-12.62335-19.04327Z" style="fill:#0198c5;"/></g></svg>