<?xml version="1.0" encoding="UTF-8"?><svg id="uuid-a841b41c-d343-40c0-9080-46493179b4bb" xmlns="http://www.w3.org/2000/svg" viewBox="0 0 795.71318 707.38078"><g id="uuid-e6d23887-8ce2-49e8-9a4d-c3cb38fc7a8b"><path d="m780.37368,538.39327c-15.60999,9.89001-31.75995,18.91998-47.70996,28.27002-50.29004,29.46997-100.54004,59.01996-150.92999,88.32996-16.25,9.45001-32.59003,18.85999-49.42004,27.20001-16.29999,8.07001-34.15997,11.98999-52.21997,11.83997-28.45001-.22998-56.89001-2.06-85.33002-3.19-12.98999-.50995-25.96997-.93994-38.96002-1.45996-42.42999-1.71997-84.85999-3.38-127.27997-5.21997-23.62006-1.02002-47.22992-2.30005-70.84003-3.60004-4.21997-.22998-6.8999.83002-9.30005,4.78998-6.57996,10.89001-16.69995,16.21002-29.3999,17.08002-21.26001,1.44-42.52002,2.96997-63.75,4.77002-25.48999,2.14996-44.20996-15.5-45.34009-38.29999-2.19995-44.57001-6.17993-89.04004-9.19995-133.56-.56006-8.25-1.29004-16.77002.13-24.79004,2.87-16.25,17.68005-28.38995,34.15002-29.60999,22.57996-1.65997,45.16992-3.34998,67.77002-4.90997,13.38989-.93005,24.62,3.45996,32.72998,14.44995,2.13,2.88,4.14001,2.47003,6.85999,1.30005,17.63-7.55005,35.53992-14.26001,54.42004-18.08002,22.68994-4.59003,45.52997-5.42999,68.56995-3.44,22.34003,1.91998,43.91998,7.31,65.53003,13.01001,10.04999,2.64996,20.64996,4.20996,31.03998,4.45001,37.31.87,74.63.95996,111.95001,1.34998,17.48999.19,34.97998.47998,52.46997.54999,15.29004.07001,25.81,8,31.85004,21.08002,6.02997,13.08002,3.96997,26.03998-5.14001,37.53998-7.59003,9.58002-17.95001,12.94-29.73999,14.03003-44.42999,4.10999-88.83002,8.57001-133.23999,12.84998-11.92999,1.15002-23.88,2.10004-35.82001,3.20001-7.22003.66998-12.04004,5.16998-11.98004,11.06.06,5.88,5.14001,10.19,12.46002,10.28998,7.98999.12,15.98999.03003,21.09998.03003,18.69-1.02002,34.51001-1.56,50.27002-2.81,24.54999-1.95001,49.12-3.85999,73.57001-6.76001,20.14001-2.38,40.15997-5.90002,60.15997-9.40002,20.42004-3.57996,37.74005-14.04999,55.19-24.75,28.80005-17.65997,58.07001-34.59998,87.72003-50.78998,15.41998-8.41998,31.97998-14.82001,48.22998-21.65002,8.53003-3.57996,17.5-3.94,26.29999-.19995,11.46002,4.87,17.30005,14.14996,18.34003,25.97998,1.09998,12.52997-4.88,22.52997-15.21002,29.07001Z" style="fill:#0198c5;"/><path d="m651.2029,221.58703c1.28937,120.83936-98.19867,221.89502-221.77164,221.8172-123.13586-.07758-222.10931-99.90707-222.03914-221.86215C207.46169,100.62766,305.22982-.08062,429.72048.00005c124.72729.08082,222.69202,101.99015,221.48242,221.58698Zm-43.67767.02191c-.00189-97.56-80.31354-177.83443-178.01385-177.93135-97.33792-.09656-178.28473,80.59769-178.39374,177.83711-.10919,97.40088,80.94046,178.28967,178.55136,178.19693,97.59238-.09271,177.85812-80.46967,177.85623-178.10269Z" style="fill:#0198c5;"/><path d="m726.41762,460.68722c-43.79517,20.11444-84.77319,43.16388-125.38,68.49261-.56366-5.70154-.78271-10.58258-1.57336-15.36926-1.73407-10.49915-2.03448-10.86578,7.55371-15.38953,27.97406-13.19824,56.04272-26.20154,84.21539-38.97015,9.18549-4.16315,18.94568-5.05713,28.73462-1.65265,1.9856.69058,3.85522,1.71475,6.44965,2.88898Z" style="fill:#0198c5;"/><path d="m583.01595,479.75277c-5.36969-5.04016-10.17487-9.55042-15.48108-14.53101,2.53192-1.24152,4.63159-2.48398,6.8786-3.33948,19.42352-7.39502,38.776-14.99533,58.35596-21.95392,10.23639-3.63797,20.72894-4.01169,32.02264,2.47495-28.04254,12.79138-56.88116,20.88876-81.77612,37.34946Z" style="fill:#0198c5;"/><path d="m427.70025,358.70119c-1.83276-.00052-3.66556.00366-5.49832-.00119-10.32401-.02734-10.90414-.62274-10.93283-11.17773-.01083-3.99866.06619-8.00055-.06711-11.99527-.20386-6.10947-1.79794-7.81342-7.78412-9.1152-8.76379-1.90585-17.5177-3.86124-26.24844-5.91211-2.09082-.49118-4.11627-1.34323-6.09897-2.19824-12.03848-5.19165-13.52811-8.36331-9.85364-20.77823,1.65186-5.58099,3.11569-11.22836,5.03201-16.71747,1.98306-5.68036,3.72678-6.02551,9.45596-3.80258,8.65692,3.35889,17.28778,6.98444,26.23315,9.34854,10.65268,2.8154,21.57062,3.76294,32.54382.57465,9.03012-2.62375,15.84445-7.58383,17.69492-17.03751,1.82797-9.33908-2.32071-17.06595-10.22253-21.6232-8.73181-5.03595-18.37079-8.46991-27.40649-13.01541-10.8118-5.43896-22.05435-10.37344-31.94858-17.20822-18.14749-12.536-22.87665-31.02049-19.66071-52.04912,3.65106-23.87378,19.19055-37.10338,40.59543-44.91367,10.30167-3.75893,10.87885-4.39474,10.9024-15.44069.00961-4.49828-.00513-8.99742.08096-13.49446.06744-3.5237,1.88586-5.84459,5.44623-5.90016,6.81598-.10643,13.63995.06113,20.45566.27458,3.66806.11488,5.28528,2.48422,5.41238,5.92426.14145,3.828.13763,7.66147.19067,11.49265.12671,9.15016,1.99591,10.92867,10.97418,13.04681,9.03232,2.13089,18.03198,4.60693,26.77063,7.70764,6.44714,2.28764,7.2066,4.78889,5.42615,11.25121-1.98999,7.22263-3.99164,14.44362-6.12634,21.62425-1.71722,5.77637-3.64246,6.71846-9.11935,4.0703-13.99551-6.76709-28.76886-9.46034-44.16013-8.22841-4.51138.36111-9.35916,1.48029-13.25336,3.67221-12.22559,6.88135-12.81958,20.95624-1.18323,28.87234,6.2916,4.28012,13.28937,7.5746,20.13834,10.97145,12.20435,6.05295,25.30682,10.6591,36.64758,18.00906,20.10635,13.03091,29.327,32.5777,26.49246,56.5336-2.81836,23.81995-17.02448,39.68146-38.62643,48.84634-15.05972,6.38928-15.34644,5.96222-15.21344,22.2836.14658,17.98834-.42117,16.00577-16.08923,16.10568-.33322.00211-.66647.00024-.99969-.00031Z" style="fill:#0198c5;"/></g></svg>