<?xml version="1.0" encoding="UTF-8"?><svg id="uuid-e2b09b2b-ef0f-442d-8b28-629a1e98d080" xmlns="http://www.w3.org/2000/svg" viewBox="0 0 304.7666 305.90411"><g id="uuid-0f57b8f2-0fe9-493a-a840-b612a6167d4e"><path d="m247.32714,98.59126c6.65823-3.90691,12.50452-7.3374,18.66711-10.95349-6.94171-12.31712-15.4606-22.86674-25.75348-31.94943C164.49654-11.15039,47.06144,26.71722,24.90111,125.26105c-2.06483,9.18204-2.18291,18.80496-3.14526,28.22925-.18542,1.81589.02298,3.67108-.14954,5.48929-.45007,4.74332-2.76241,8.30042-7.46268,9.55075-4.50963,1.19965-8.72656-.52011-10.73599-4.42181-1.96918-3.82361-3.55029-8.46024-3.39742-12.6709C2.0667,94.79719,26.55086,50.47217,75.3958,21.43173,147.49288-21.43311,239.26549,2.06718,283.20443,73.49155c.51483.83688,1.05737,1.65671,1.92828,3.01801,5.96323-3.33994,11.81152-6.61552,18.25296-10.2233-1.50647,19.12105-2.95157,37.46335-4.47827,56.84131-17.31808-8.23807-34.01663-16.18143-51.58026-24.5363Z" style="fill:#0198c5;"/><path d="m6.19942,182.92602c17.58041,8.38385,34.23448,16.32596,51.61046,24.61234-6.43465,3.7641-12.27504,7.1806-19.35809,11.32404,6.02521,7.82779,11.16153,16.03345,17.75905,22.81827,37.13774,38.19199,82.08121,51.70746,133.18021,36.6178,50.90533-15.03247,81.26093-50.66534,91.8367-102.66211,1.80835-8.89093,1.52063-18.21201,2.1496-27.33792.63702-9.24286,8.758-14.3111,15.37265-9.02756,2.93472,2.34415,5.74686,6.74197,5.88681,10.31445.36243,9.25159-.00562,18.6879-1.46527,27.82959-9.84668,61.66888-56.12198,110.88354-116.70908,124.63757-64.17126,14.56766-129.75435-12.9942-164.2744-69.03473-.60367-.98004-1.23979-1.94006-2.20963-3.45401-5.81471,3.29337-11.51239,6.52048-18.21408,10.31622,1.50313-19.30276,2.93526-37.6936,4.43507-56.95395Z" style="fill:#0198c5;"/><path d="m145.18984,221.8349c-13.46991-2.77197-25.86197-4.96414-38.05566-7.96301-7.56371-1.86017-7.42628-2.40955-7.42184-10.17355.0036-6.32181.00075-12.64362.00075-19.8374,14.7054,5.7778,29.18779,10.64398,45.2859,11.56857,0-10.61896.11517-20.72321-.15384-30.81723-.03168-1.18774-1.9762-2.72537-3.37265-3.40848-7.15784-3.50143-14.67429-6.33438-21.60507-10.22171-14.54041-8.1553-22.16853-20.56564-19.96944-37.547,2.11354-16.32089,13.5854-24.42934,27.98122-29.17213,5.32928-1.75575,10.96701-2.57529,17.05023-3.95473v-15.29977h14.34354v15.15785c15.13928,1.32768,29.5849,3.37645,43.70505,10.04791-3.18787,7.97868-6.35052,15.89421-9.41187,23.55623-11.35394-2.76382-22.25339-5.41702-34.12057-8.30579,0,11.20486-.08331,21.12152.13986,31.03134.02042.90692,1.87567,2.04413,3.0947,2.60727,6.63947,3.06714,13.51743,5.6601,19.99161,9.0336,10.41904,5.42911,19.35959,12.36502,22.05756,24.83499,3.1918,14.75238-2.16275,28.54993-14.56821,37.07373-7.43854,5.11102-15.83356,7.57224-24.62076,8.97446-1.94061.30969-3.87469.65994-6.159,1.05093v21.0419h-14.1915v-19.27798Zm14.51868-27.55328c8.33646-.54968,13.53955-4.57281,14.06708-10.75189.56635-6.63388-4.49954-11.90735-14.06708-14.39349v25.14539Zm-15.01663-63.20636c.12579-.96262.35077-1.90118.35486-2.84073.03018-6.94199.01633-13.88416.01633-20.82449-8.00766.14124-13.13736,3.7858-13.71146,9.35693-.69446,6.73981,4.46747,12.36804,13.34027,14.30829Z" style="fill:#0198c5;"/></g></svg>