<?xml version="1.0" encoding="UTF-8"?><svg id="uuid-da354e2c-d774-4ae8-9575-e1c3fccb5f22" xmlns="http://www.w3.org/2000/svg" viewBox="0 0 294.07815 320.51986"><g id="uuid-166f3e34-ceae-4649-9a6d-55f91adc8393"><path d="m61.45503,320.51986H19.72144V110.00728h41.7336v210.51258Z" style="fill:#0198c5;"/><path d="m77.54625,320.45566v-137.14591h42.13579v137.14591h-42.13579Z" style="fill:#0198c5;"/><path d="m87.79721,44.11948c.20429,24.10264-19.27732,43.72837-43.63265,43.95542C19.54083,88.30446.20892,68.84673.00139,43.62429-.19196,20.12471,19.77051.17308,43.64825.00116c24.28545-.17486,43.94002,19.46607,44.14896,44.11833Zm-47.62207,17.49985c.2624,1.88478.48243,3.46514.73366,5.26964,2.03833-.10118,3.76492-.18689,5.43583-.26983.15662-2.21483.27307-3.86165.39679-5.61134,5.31758-1.42148,9.38439-4.25001,9.51259-10.10955.13776-6.29685-4.51005-8.72824-9.64707-10.51138-1.40046-.48612-2.85531-1.08008-3.9866-1.99413-.92024-.74352-2.18257-2.42534-1.89743-3.00794.54807-1.11982,2.05953-2.41755,3.2169-2.46221,2.92005-.11267,5.86534.42936,9.07754.73542.52836-1.66938,1.05716-3.34014,1.51821-4.79687-3.41238-1.55983-6.33627-3.72797-9.44926-4.04616-2.33055-.23822-4.88406,1.95738-7.37526,2.97916-3.79262,1.55557-5.8398,4.44459-6.00001,8.41974-.16424,4.07549,1.97441,6.93297,5.67843,8.57615,2.57654,1.143,5.3415,1.95977,7.71393,3.42242,1.17027.7215,2.42917,2.73152,2.20279,3.87151-.21388,1.07698-2.31761,2.49912-3.59594,2.50503-3.41714.01581-6.83744-.64724-10.74202-1.09637-.39626,1.61111-.85294,3.46786-1.40012,5.69256,2.97494.84135,5.64589,1.59672,8.60703,2.43417Z" style="fill:#0198c5;"/><path d="m177.6809,320.45334h-42.01202v-103.36275h42.01202v103.36275Z" style="fill:#0198c5;"/><path d="m254.31973,207.26675v-21.12477c13.60355,9.64856,26.36026,18.69645,39.75843,28.19932-13.34428,6.96916-26.07367,13.61718-39.46427,20.61054v-15.26239c-81.87859-12.41008-139.59796-59.68867-185.63419-124.83312,1.02941-.86844,1.4861-1.33068,2.01447-1.68647,2.61669-1.76198,5.25231-3.49586,8.03153-5.33932,43.44291,61.62231,97.38267,107.55367,175.29404,119.4362Z" style="fill:#0198c5;"/><path d="m236.15083,320.4553h-42.44225v-79.43688c13.4239,0,26.5479-.01974,39.67178.01208,3.91168.00949,2.7748,3.09181,2.78032,5.13855.05563,20.66145.00793,41.3232-.00937,61.98486-.00333,3.96731-.00049,7.93465-.00049,12.30138Z" style="fill:#0198c5;"/><path d="m293.86953,320.51147h-42.08971v-63.61302h42.08971v63.61302Z" style="fill:#0198c5;"/></g></svg>