<?xml version="1.0" encoding="UTF-8"?><svg id="uuid-ecccdf8d-ce45-4bd5-bfbb-3c54995e8226" xmlns="http://www.w3.org/2000/svg" viewBox="0 0 218.79685 350.0821"><g id="uuid-3cf30060-223f-4b1a-82c1-68b42a6d484c"><path d="m109.00519,251.53656c-17.49655-.00018-34.99316.03183-52.48959-.01331-9.16769-.02365-13.04773-3.26968-13.87128-12.10709-2.02841-21.76639-9.29886-41.72932-20.17239-60.53589-7.99536-13.82855-15.71091-27.73441-19.47327-43.53302C-11.93369,72.64403,30.5234,10.09489,94.31985,1.08201c60.08383-8.48838,115.42975,33.90776,123.45502,94.13339,3.26862,24.52896-1.36902,47.27467-12.96948,68.84651-8.1796,15.21048-17.86606,29.74095-22.46854,46.60974-2.48428,9.1053-4.36337,18.42735-5.75482,27.765-1.45605,9.77121-4.60181,13.07733-14.58713,13.09256-17.66321.02692-35.32648.00757-52.98972.00735Zm-21.18124-22.05554h22.68124v-43.20016c3.87155-.30191,7.07321-.25418,10.15396-.84111,17.37463-3.3101,26.11365-15.45467,30.81601-31.17201,7.61569-25.45512,5.17911-51.28516,2.49188-77.30524-.95175,0-1.61932-.12739-2.22064.01846-19.66556,4.76991-38.67062,11.18524-55.08887,23.48225-14.77182,11.06387-23.88675,25.23659-23.39731,44.44655.37958,14.89719,5.84711,27.8808,14.48917,39.87231.85074-10.76636,2.70453-21.11533,7.98376-30.52054,5.39792-9.6167,12.77798-17.00685,23.99225-20.903-20.50354,29.17615-25.45694,62.57791-31.90146,96.12248Z" style="fill:#0198c5;"/><path d="m109.5542,317.07108c-17.97296-.00165-35.94592-.00903-53.91888.00314-4.99017.00336-8.6644-2.147-10.6965-6.71335-1.79514-4.03387-1.30444-8.25641,1.89319-11.02448,2.43182-2.10516,6.08154-3.91684,9.20395-3.94049,35.61105-.26968,71.22504-.22897,106.8378-.12189,7.30719.02197,12.35428,4.93439,12.20389,11.14041-.15308,6.31924-5.17789,10.63004-12.60303,10.64606-17.64005.03802-35.28027.01224-52.92041.01059Z" style="fill:#0198c5;"/><path d="m109.56146,284.2186c-17.96979-.00299-35.94046.10287-53.909-.04626-9.44266-.07837-14.81113-9.12961-9.70755-16.49777,1.52426-2.20059,4.55145-3.59915,7.16656-4.72031,1.71747-.73642,3.93051-.4014,5.92169-.40244,33.61017-.01764,67.22037-.01273,100.83054-.01221.99832.00003,1.99768-.02216,2.99475.01486,7.4614.27725,12.35562,4.70905,12.20547,11.03748-.15134,6.38052-5.04059,10.59079-12.5914,10.61307-17.6369.05194-35.27402.01657-52.91107.01358Z" style="fill:#0198c5;"/><path d="m66.0805,328.24665h86.49335c.58777,11.47061-8.71585,21.4292-20.61798,21.63922-14.96524.26407-29.94208.25906-44.9075.00046-11.58215-.20013-19.85464-8.8212-20.96786-21.63968Z" style="fill:#0198c5;"/></g></svg>