<?xml version="1.0" encoding="UTF-8"?><svg id="uuid-7b7db6b8-8d89-47e2-b33e-b3d711dd2978" xmlns="http://www.w3.org/2000/svg" xmlns:xlink="http://www.w3.org/1999/xlink" viewBox="0 0 571.68396 142.96668"><defs><radialGradient id="uuid-67a90133-f95e-43b8-8c0d-4c3daff3e8e6" cx="-457.98711" cy="-19.02019" fx="-457.98711" fy="-19.02019" r="112.04366" gradientTransform="translate(476.91542 79.34659) scale(.89542)" gradientUnits="userSpaceOnUse"><stop offset="0" stop-color="#ffc700"/><stop offset="1" stop-color="#f77308"/></radialGradient></defs><path d="m152.54529,68.34757h6.88867c.50195,0,.8252.26855.96875.80664.64648,2.65625,2.79883,3.9834,6.45898,3.9834,2.00879,0,3.52441-.3584,4.54785-1.07715,1.02246-.7168,1.5332-1.72168,1.5332-3.01367,0-2.22461-1.66797-3.60547-5.00488-4.14355l-5.32812-.86133c-7.21191-1.18457-10.81738-4.79004-10.81738-10.81738,0-3.55273,1.26465-6.36914,3.79395-8.4502,2.5293-2.08008,6.12598-3.12109,10.79102-3.12109,4.52051,0,8.03613.9873,10.54785,2.95996,2.51172,1.97363,3.92969,4.80859,4.25195,8.50293v.26953c0,.43066-.26855.64551-.80664.64551h-6.94336c-.50293,0-.80664-.28613-.91504-.86133-.3584-2.61816-2.4043-3.92871-6.13477-3.92871-3.875,0-5.8125,1.31055-5.8125,3.92871,0,1.04102.41211,1.86621,1.2373,2.47656s2.31445,1.07617,4.4668,1.39844l5.32812.86133c6.70898,1.07617,10.06445,4.68262,10.06445,10.81738,0,3.83984-1.29102,6.7998-3.875,8.88086-2.58301,2.08105-6.20703,3.12109-10.87109,3.12109-4.55762,0-8.13574-.98633-10.7373-2.95996-2.60156-1.97266-4.09961-4.79004-4.49414-8.44922v-.26953c0-.46582.28711-.69922.86133-.69922Z" style="fill:#0498c5;"/><path d="m189.51794,61.18937c0-5.52539,1.88379-10.16309,5.65137-13.91211,3.7666-3.74902,8.43066-5.62402,13.99219-5.62402s10.22559,1.875,13.99316,5.62402,5.65137,8.38672,5.65137,13.91211-1.88379,10.1543-5.65137,13.88574c-3.76758,3.7666-8.43164,5.65039-13.99316,5.65039s-10.22559-1.87402-13.99219-5.62402c-3.76758-3.74902-5.65137-8.38672-5.65137-13.91211Zm8.93359,0c0,3.30176.98633,6.00977,2.95996,8.12695,1.97363,2.15234,4.55664,3.22852,7.75,3.22852s5.77637-1.06641,7.75-3.20215c1.97266-2.13379,2.95996-4.85156,2.95996-8.15332,0-3.30078-.9873-6.01855-2.95996-8.15332-1.97363-2.13477-4.55664-3.20215-7.75-3.20215s-5.77637,1.06738-7.75,3.20215-2.95996,4.85254-2.95996,8.15332Z" style="fill:#0498c5;"/><path d="m239.13904,42.35246h6.94238c.60938,0,.91504.28809.91504.86133v28.73926h16.0918c.57324,0,.86133.28809.86133.86133v6.35059c0,.57422-.28809.86133-.86133.86133h-23.94922c-.57422,0-.86133-.28711-.86133-.86133v-35.95117c0-.57324.28711-.86133.86133-.86133Z" style="fill:#0498c5;"/><path d="m270.51599,79.00382l14.04688-35.95117c.14258-.46582.48438-.7002,1.02246-.7002h8.07227c.57422,0,.93262.23438,1.07715.7002l14.10059,35.95117c.03516.17969.05371.32227.05371.43066,0,.39453-.25195.5918-.75391.5918h-7.31934c-.50293,0-.82617-.2334-.96875-.7002l-2.15234-5.86621h-16.0918l-2.15332,5.86621c-.14355.4668-.48438.7002-1.02246.7002h-7.21191c-.53809,0-.80762-.17969-.80762-.53809,0-.14355.03613-.30469.1084-.48438Zm24.32617-13.24023l-5.11328-13.88477h-.16113l-5.11328,13.88477h10.3877Z" style="fill:#0498c5;"/><path d="m316.74548,79.16496v-35.95117c0-.57324.28711-.86133.86133-.86133h14.74609c4.62891,0,8.23438,1.14844,10.81738,3.44434,2.58398,2.29688,3.875,5.47168,3.875,9.52637,0,2.54785-.53809,4.79883-1.61426,6.75391-1.07617,1.95605-2.61914,3.4541-4.62793,4.49414,3.47949,2.47559,5.68555,6.63867,6.61914,12.48633v.26855c0,.4668-.26855.7002-.80664.7002h-7.80469c-.53809,0-.86035-.26953-.96875-.80762-.75293-3.94629-1.92871-6.72754-3.52441-8.3418-1.59766-1.61426-3.84863-2.42188-6.75488-2.42188h-2.09863v10.70996c0,.57422-.30566.86133-.91504.86133h-6.94238c-.57422,0-.86133-.28711-.86133-.86133Zm8.71875-18.83691h6.67383c3.98242,0,5.97363-1.66797,5.97363-5.00488,0-3.30078-1.99121-4.95117-5.97363-4.95117h-6.67383v9.95605Z" style="fill:#0498c5;"/><path d="m373.90075,42.35246h13.66992c4.48438,0,7.88477.8877,10.19824,2.66406,2.31445,1.77637,3.47168,4.27832,3.47168,7.50781,0,3.94727-1.59668,6.58496-4.79004,7.91113v.1084c2.2959.39453,4.09082,1.35449,5.38184,2.87891,1.29199,1.52539,1.9375,3.54395,1.9375,6.05469,0,3.33691-1.16602,5.92969-3.49805,7.77734-2.33301,1.84766-5.74121,2.77148-10.22559,2.77148h-16.14551c-.57422,0-.86133-.28711-.86133-.86133v-35.95117c0-.57324.28711-.86133.86133-.86133Zm7.75,7.1582v7.75h5.48926c1.86523,0,3.21094-.32324,4.03613-.96875.8252-.60938,1.23828-1.57812,1.23828-2.90625,0-1.32715-.41309-2.30469-1.23828-2.93359-.8252-.62695-2.1709-.94141-4.03613-.94141h-5.48926Zm7.53418,23.35742c2.04492,0,3.49805-.34082,4.35938-1.02246s1.29199-1.77637,1.29199-3.2832-.43945-2.5918-1.31836-3.25586c-.87988-.66309-2.32422-.99609-4.33301-.99609h-7.53418v8.55762h7.53418Z" style="fill:#0498c5;"/><path d="m411.25036,61.18937c0-5.52539,1.88379-10.16309,5.65137-13.91211,3.7666-3.74902,8.43066-5.62402,13.99219-5.62402s10.22559,1.875,13.99316,5.62402,5.65137,8.38672,5.65137,13.91211-1.88379,10.1543-5.65137,13.88574c-3.76758,3.7666-8.43164,5.65039-13.99316,5.65039s-10.22559-1.87402-13.99219-5.62402c-3.76758-3.74902-5.65137-8.38672-5.65137-13.91211Zm8.93359,0c0,3.30176.98633,6.00977,2.95996,8.12695,1.97363,2.15234,4.55664,3.22852,7.75,3.22852s5.77637-1.06641,7.75-3.20215c1.97266-2.13379,2.95996-4.85156,2.95996-8.15332,0-3.30078-.9873-6.01855-2.95996-8.15332-1.97363-2.13477-4.55664-3.20215-7.75-3.20215s-5.77637,1.06738-7.75,3.20215-2.95996,4.85254-2.95996,8.15332Z" style="fill:#0498c5;"/><path d="m458.50329,61.18937c0-5.52539,1.88379-10.16309,5.65137-13.91211,3.7666-3.74902,8.43066-5.62402,13.99219-5.62402s10.22559,1.875,13.99316,5.62402,5.65137,8.38672,5.65137,13.91211-1.88379,10.1543-5.65137,13.88574c-3.76758,3.7666-8.43164,5.65039-13.99316,5.65039s-10.22559-1.87402-13.99219-5.62402c-3.76758-3.74902-5.65137-8.38672-5.65137-13.91211Zm8.93359,0c0,3.30176.98633,6.00977,2.95996,8.12695,1.97363,2.15234,4.55664,3.22852,7.75,3.22852s5.77637-1.06641,7.75-3.20215c1.97266-2.13379,2.95996-4.85156,2.95996-8.15332,0-3.30078-.9873-6.01855-2.95996-8.15332-1.97363-2.13477-4.55664-3.20215-7.75-3.20215s-5.77637,1.06738-7.75,3.20215-2.95996,4.85254-2.95996,8.15332Z" style="fill:#0498c5;"/><path d="m506.67029,68.34757h6.88867c.50195,0,.8252.26855.96875.80664.64648,2.65625,2.79883,3.9834,6.45898,3.9834,2.00879,0,3.52441-.3584,4.54785-1.07715,1.02246-.7168,1.5332-1.72168,1.5332-3.01367,0-2.22461-1.66797-3.60547-5.00488-4.14355l-5.32812-.86133c-7.21191-1.18457-10.81738-4.79004-10.81738-10.81738,0-3.55273,1.26465-6.36914,3.79395-8.4502,2.5293-2.08008,6.12598-3.12109,10.79102-3.12109,4.52051,0,8.03613.9873,10.54785,2.95996,2.51172,1.97363,3.92969,4.80859,4.25195,8.50293v.26953c0,.43066-.26855.64551-.80664.64551h-6.94336c-.50293,0-.80664-.28613-.91504-.86133-.3584-2.61816-2.4043-3.92871-6.13477-3.92871-3.875,0-5.8125,1.31055-5.8125,3.92871,0,1.04102.41211,1.86621,1.2373,2.47656s2.31445,1.07617,4.4668,1.39844l5.32812.86133c6.70898,1.07617,10.06445,4.68262,10.06445,10.81738,0,3.83984-1.29102,6.7998-3.875,8.88086-2.58301,2.08105-6.20703,3.12109-10.87109,3.12109-4.55762,0-8.13574-.98633-10.7373-2.95996-2.60156-1.97266-4.09961-4.79004-4.49414-8.44922v-.26953c0-.46582.28711-.69922.86133-.69922Z" style="fill:#0498c5;"/><path d="m541.81384,43.21379c0-.57324.30469-.86133.91504-.86133h28.09375c.57324,0,.86133.28809.86133.86133v6.35059c0,.57422-.28809.86133-.86133.86133h-9.74121v28.73926c0,.57422-.28809.86133-.86133.86133h-6.94238c-.57422,0-.86133-.28711-.86133-.86133v-28.73926h-9.6875c-.61035,0-.91504-.28711-.91504-.86133v-6.35059Z" style="fill:#0498c5;"/><path d="m151.77478,128.5966l11.93262-30.53906c.12109-.39648.41113-.59473.86816-.59473h6.8584c.4873,0,.79199.19824.91406.59473l11.97852,30.53906c.0293.15332.04492.27441.04492.36621,0,.33594-.21289.50293-.63965.50293h-6.21777c-.42676,0-.70117-.19824-.82324-.59473l-1.82812-4.9834h-13.66992l-1.82812,4.9834c-.12305.39648-.41211.59473-.86914.59473h-6.12598c-.45703,0-.68555-.15234-.68555-.45703,0-.12207.0293-.25879.09082-.41211Zm20.66504-11.24609l-4.34375-11.7959h-.13672l-4.34375,11.7959h8.82422Z" style="fill:#f9b03d;"/><path d="m189.35486,97.46281h5.89746c.51758,0,.77734.24414.77734.73145v17.78418c0,2.4082.49512,4.17676,1.48535,5.30371.99023,1.12793,2.49219,1.69141,4.50391,1.69141s3.51953-.56348,4.52539-1.69141c1.00586-1.12695,1.50879-2.89551,1.50879-5.30371v-17.78418c0-.4873.24414-.73145.73145-.73145h5.89746c.51855,0,.77734.24414.77734.73145v18.28711c0,4.32812-1.17383,7.66602-3.51953,10.0127-2.34766,2.37695-5.6543,3.56543-9.9209,3.56543-4.26758,0-7.56641-1.18066-9.89844-3.54297-2.33105-2.36133-3.49707-5.70703-3.49707-10.03516v-18.28711c0-.4873.24316-.73145.73145-.73145Z" style="fill:#f9b03d;"/><path d="m222.9115,119.54484h5.85156c.42676,0,.70117.22852.82324.68555.54785,2.25586,2.37695,3.38281,5.48535,3.38281,1.70703,0,2.99512-.30371,3.86328-.91406.86914-.60938,1.30371-1.46289,1.30371-2.56055,0-1.88867-1.41797-3.0625-4.25195-3.51953l-4.52637-.73145c-6.12598-1.00586-9.18945-4.06934-9.18945-9.18945,0-3.01758,1.07422-5.41016,3.22363-7.17773,2.14844-1.76758,5.2041-2.65137,9.16602-2.65137,3.84082,0,6.82715.83789,8.96094,2.51367,2.13281,1.67676,3.33691,4.08496,3.61133,7.22363v.22852c0,.36621-.22852.54883-.68555.54883h-5.89746c-.42773,0-.68555-.24316-.77734-.73145-.30469-2.22461-2.04199-3.33789-5.21191-3.33789-3.29199,0-4.9375,1.11328-4.9375,3.33789,0,.88477.35059,1.58496,1.05176,2.10254.7002.51953,1.96582.91504,3.79492,1.18945l4.52539.73145c5.69922.91406,8.5498,3.97754,8.5498,9.18945,0,3.26172-1.09766,5.77539-3.29199,7.54297s-5.27344,2.65137-9.23535,2.65137c-3.87109,0-6.91113-.83789-9.12012-2.51367-2.21094-1.67676-3.48242-4.06934-3.81738-7.17773v-.22949c0-.39551.24316-.59375.73145-.59375Z" style="fill:#f9b03d;"/><path d="m251.84997,98.19425c0-.4873.25879-.73145.77734-.73145h23.86523c.4873,0,.73145.24414.73145.73145v5.39453c0,.48828-.24414.73145-.73145.73145h-8.27539v24.41406c0,.4873-.24414.73145-.73145.73145h-5.89746c-.4873,0-.73145-.24414-.73145-.73145v-24.41406h-8.22949c-.51855,0-.77734-.24316-.77734-.73145v-5.39453Z" style="fill:#f9b03d;"/><path d="m283.21228,128.73429v-30.54004c0-.4873.24316-.73145.73145-.73145h12.52637c3.93164,0,6.99512.97559,9.18945,2.92578,2.19434,1.95117,3.29199,4.64844,3.29199,8.09277,0,2.16406-.45801,4.07617-1.37207,5.7373s-2.22461,2.93359-3.93164,3.81738c2.95605,2.10254,4.83008,5.63867,5.62305,10.60645v.22852c0,.39648-.22852.59473-.68555.59473h-6.62891c-.45703,0-.73145-.22852-.82324-.68555-.63965-3.35254-1.63867-5.71484-2.99414-7.08691-1.35645-1.37109-3.26855-2.05762-5.7373-2.05762h-1.7832v9.09863c0,.4873-.25977.73145-.77734.73145h-5.89746c-.48828,0-.73145-.24414-.73145-.73145Zm7.40625-16.00195h5.66895c3.38281,0,5.07422-1.41699,5.07422-4.25098,0-2.80371-1.69141-4.20605-5.07422-4.20605h-5.66895v8.45703Z" style="fill:#f9b03d;"/><path d="m314.16247,128.5966l11.93262-30.53906c.12109-.39648.41113-.59473.86816-.59473h6.8584c.4873,0,.79199.19824.91406.59473l11.97852,30.53906c.0293.15332.04492.27441.04492.36621,0,.33594-.21289.50293-.63965.50293h-6.21777c-.42676,0-.70117-.19824-.82324-.59473l-1.82812-4.9834h-13.66992l-1.82812,4.9834c-.12305.39648-.41211.59473-.86914.59473h-6.12598c-.45703,0-.68555-.15234-.68555-.45703,0-.12207.0293-.25879.09082-.41211Zm20.66504-11.24609l-4.34375-11.7959h-.13672l-4.34375,11.7959h8.82422Z" style="fill:#f9b03d;"/><path d="m353.25134,97.46281h5.89746c.51758,0,.77734.24414.77734.73145v24.41309h13.66895c.4873,0,.73242.24512.73242.73242v5.39453c0,.4873-.24512.73145-.73242.73145h-20.34375c-.48828,0-.73145-.24414-.73145-.73145v-30.54004c0-.4873.24316-.73145.73145-.73145Z" style="fill:#f9b03d;"/><path d="m381.36755,97.46281h5.89746c.51758,0,.77734.24414.77734.73145v30.54004c0,.4873-.25977.73145-.77734.73145h-5.89746c-.48828,0-.73145-.24414-.73145-.73145v-30.54004c0-.4873.24316-.73145.73145-.73145Z" style="fill:#f9b03d;"/><path d="m393.84802,128.5966l11.93262-30.53906c.12109-.39648.41113-.59473.86816-.59473h6.8584c.4873,0,.79199.19824.91406.59473l11.97852,30.53906c.0293.15332.04492.27441.04492.36621,0,.33594-.21289.50293-.63965.50293h-6.21777c-.42676,0-.70117-.19824-.82324-.59473l-1.82812-4.9834h-13.66992l-1.82812,4.9834c-.12305.39648-.41211.59473-.86914.59473h-6.12598c-.45703,0-.68555-.15234-.68555-.45703,0-.12207.0293-.25879.09082-.41211Zm20.66504-11.24609l-4.34375-11.7959h-.13672l-4.34375,11.7959h8.82422Z" style="fill:#f9b03d;"/><polygon points="112.41511 61.61811 96.20798 61.61811 73.54494 80.55613 97.14843 80.55613 112.41511 61.61811" style="fill:#0498c5;"/><polygon points="54.89378 121.27971 29.32063 142.96668 63.62409 142.96668 85.66017 120.45589 55.86046 120.45589 54.89378 121.27971" style="fill:#0498c5;"/><polygon points="78.26424 101.46414 57.4458 119.11277 86.97618 119.11277 104.2488 101.46414 104.32051 101.39249 78.34468 101.39249 78.26424 101.46414" style="fill:#0498c5;"/><polygon points="50.21951 100.04937 105.63696 100.04937 123.40188 81.89926 71.94211 81.89926 50.21951 100.04937" style="fill:#0498c5;"/><polygon points="97.81081 60.27498 113.49853 60.27498 128.2283 41.9995 119.68599 41.9995 97.81081 60.27498" style="fill:#0498c5;"/><polygon points="121.28882 40.65638 129.31172 40.65638 145.859 20.12448 121.28882 40.65638" style="fill:#0498c5;"/><path d="m67.5905,3.37122c-.26845-1.30727-1.54905-2.16689-2.86507-1.88932-1.31645.25971-2.16684,1.54911-1.89839,2.86534l4.73679,23.254c1.56698-.38508,3.15188-.69845,4.77264-.94023l-4.74597-23.28979Zm-19.60953,6.08888c-.59986-1.19988-2.05928-1.69235-3.25944-1.09244-1.19972.59991-1.69202,2.05945-1.09216,3.25933l10.56574,21.18553c1.41483-.78797,2.87425-1.50429,4.36078-2.15793l-10.57492-21.19449Zm58.61393-5.42622c-1.27142-.42087-2.6504.25965-3.071,1.53113l-7.6023,22.7436c1.54905.45667,3.08018.98494,4.59338,1.57594l7.61104-22.77044c.42978-1.27153-.25971-2.65045-1.53113-3.08023ZM85.83024.0045c-1.33394-.08061-2.49825.93121-2.57869,2.27434l-1.45068,23.80915c1.6295.0358,3.24151.15221,4.85309.3313l1.45068-23.84495c.08045-1.34312-.93127-2.48928-2.27439-2.56984ZM30.61872,20.41102c-.89542-1.01183-2.42654-1.10134-3.43826-.21489-1.00297.89542-1.0926,2.42654-.20593,3.43837l15.66979,17.69344c1.16387-1.11927,2.38195-2.18482,3.64419-3.20555l-15.66979-17.71136Zm-3.98434,69.03659l-23.2629,4.73679c-1.31645.27758-2.15809,1.54905-1.89839,2.86534.24178,1.15507,1.2535,1.94304,2.38195,1.94304.1609,0,.32223-.00896.48312-.04476l23.29919-4.73679c-.40311-1.57594-.73452-3.16079-1.00297-4.76362Zm-9.95714-53.96672c-1.12801-.74321-2.63247-.42984-3.37574.68053-.73408,1.12818-.42978,2.63253.68949,3.37568l19.69042,13.0283c.84164-1.38788,1.73706-2.73997,2.69499-4.04725l-19.69916-13.03726Zm21.678,79.79951l-17.95293,15.88468c-.99423.88645-1.0926,2.4266-.20593,3.42946.48312.54619,1.14594.8148,1.8175.8148.57319,0,1.15512-.19697,1.61157-.60888l17.98921-15.91157c-1.14638-1.15507-2.22062-2.36386-3.25944-3.6085ZM2.57443,73.67038c-1.33438-.07159-2.4895.94023-2.56995,2.27439-.08045,1.34312.93127,2.49819,2.27439,2.5788l23.63891,1.44161c.01793-1.62966.10755-3.25037.26889-4.85314l-23.61224-1.44166Zm4.53086-20.0215c-1.27142-.42978-2.6504.25965-3.07144,1.53118-.42978,1.27148.25971,2.6504,1.54031,3.07127l22.39416,7.49463c.44771-1.56698.95838-3.09816,1.54031-4.61142l-22.40334-7.48567ZM125.60457,13.31038c-1.11927-.74321-2.62373-.42978-3.35781.68053l-13.30577,20.10211c1.38772.83273,2.7221,1.75498,4.02937,2.72205l13.33287-20.13791c.73408-1.11927.42978-2.62356-.69867-3.36677ZM32.86644,107.28435l-2.32817-4.00254-21.07814,10.51218c-1.2089.59997-1.69246,2.0595-1.0926,3.25933.42104.85066,1.2806,1.34312,2.17602,1.34312.35808,0,.73408-.08056,1.08342-.25069l21.34703-10.64652.00874-.00896-.1163-.20593ZM111.11658,41.9995c-.58193-.46558-1.17261-.91329-1.77247-1.34312-8.12171-5.8918-18.09633-9.34815-28.87718-9.34815-27.23894,0-49.31087,22.07204-49.31087,49.30163,0,6.91264,1.43275,13.5029,4.0027,19.47531.59068,1.37001,1.23557,2.71314,1.94298,4.02041l4.81724-4.02041,21.75888-18.18591,1.61157-1.34312,22.66304-18.93803,1.60283-1.34312,21.72259-18.15011c-.05378-.04476-.10712-.08952-.16133-.12537Zm-73.3166,63.33285c3.0264,5.2292,6.99326,9.84062,11.65834,13.61925l16.05498-13.61925h-27.71332Z" style="fill:url(#uuid-67a90133-f95e-43b8-8c0d-4c3daff3e8e6);"/></svg>